<svg id="Layer_3" enable-background="new 0 0 64 64" height="512" viewBox="0 0 64 64" width="512" xmlns="http://www.w3.org/2000/svg" xmlns:xlink="http://www.w3.org/1999/xlink"><linearGradient id="SVGID_1_" gradientUnits="userSpaceOnUse" x1="31.997" x2="31.997" y1="63" y2="1"><stop offset="0" stop-color="#9f2fff"/><stop offset="1" stop-color="#0bb1d3"/></linearGradient><path d="m32 25c-3.859 0-7 3.14-7 7s3.141 7 7 7 7-3.14 7-7-3.141-7-7-7zm0 12c-2.757 0-5-2.243-5-5s2.243-5 5-5 5 2.243 5 5-2.243 5-5 5zm11.865-11.519-5.346-5.347-2.136 1.281-.602-2.415h-7.562l-.603 2.416-2.136-1.281-5.346 5.347 1.281 2.134-2.415.603v7.562l2.415.603-1.28 2.135 5.346 5.347 2.136-1.281.602 2.415h7.562l.603-2.416 2.136 1.281 5.346-5.347-1.28-2.135 2.414-.602v-7.562l-2.416-.603zm-.865 4.3v4.438l-1.949.487-.534.202-.465 1.142 1.296 2.16-3.139 3.138-2.159-1.296-1.22.503-.611 2.445h-4.438l-.611-2.446-1.22-.503-2.159 1.296-3.139-3.138 1.296-2.16-.496-1.218-2.452-.612v-4.438l1.949-.487.535-.203.464-1.142-1.296-2.158 3.139-3.138 2.159 1.296 1.22-.503.611-2.446h4.438l.611 2.446 1.22.503 2.159-1.296 3.139 3.138-1.296 2.158.496 1.22zm-35.982-18.844-1.996.127c-.175-2.746.585-4.12 1.254-4.789.845-.845 2.178-1.273 3.962-1.273 1.965 0 4.424.528 7.111 1.526l-.697 1.875c-2.467-.917-4.685-1.401-6.414-1.401-1.199 0-2.104.244-2.548.688-.194.192-.816 1-.672 3.247zm11.199-1.909-.251-.106.773-1.845.268.114c.653.28 1.316.584 1.985.909l-.875 1.799c-.639-.311-1.273-.602-1.9-.871zm-17.217 13.972c0 2.757 2.243 5 5 5 .459 0 .895-.082 1.317-.198.852 1.389 1.774 2.786 2.769 4.187-2.759 3.88-4.994 7.751-6.572 11.432-3.328 7.765-3.352 13.85-.067 17.133 1.625 1.625 3.952 2.433 6.823 2.433 3.483 0 7.774-1.204 12.574-3.558.731.948 1.867 1.571 3.156 1.571 2.206 0 4-1.794 4-4 0-.537-.11-1.049-.303-1.517.763-.502 1.527-1.024 2.292-1.568 3.88 2.758 7.751 4.994 11.432 6.571 3.909 1.676 7.392 2.514 10.307 2.514 2.875 0 5.195-.815 6.826-2.446 3.211-3.211 3.248-9.096.139-16.616.798-.732 1.307-1.773 1.307-2.938 0-2.206-1.794-4-4-4-.268 0-.53.029-.783.079-.608-1.026-1.265-2.067-1.965-3.118.46-.527.748-1.208.748-1.961s-.288-1.433-.747-1.96c7.874-11.825 9.923-21.972 5.301-26.594-3.484-3.485-10.269-3.185-18.682.78-.728-.753-1.744-1.226-2.872-1.226-2.206 0-4 1.794-4 4 0 .34.056.665.136.981-1.04.664-2.084 1.361-3.128 2.103-3.879-2.757-7.749-4.992-11.429-6.569-7.766-3.33-13.85-3.352-17.133-.069-3.056 3.057-3.23 8.597-.524 15.644-1.161.916-1.922 2.319-1.922 3.91zm2 0c0-1.654 1.346-3 3-3s3 1.346 3 3-1.346 3-3 3-3-1.346-3-3zm23 36c-1.103 0-2-.897-2-2s.897-2 2-2 2 .897 2 2-.897 2-2 2zm2.483-5.111c-.684-.548-1.54-.889-2.483-.889-2.206 0-4 1.794-4 4 0 .201.031.395.059.588-7.872 3.882-14.272 4.477-17.199 1.552-2.628-2.628-2.449-8.07.491-14.931 1.449-3.381 3.481-6.934 5.976-10.508.395.527.809 1.053 1.223 1.579-.344.487-.55 1.079-.55 1.72 0 1.654 1.346 3 3 3 .454 0 .88-.109 1.266-.29 1.268 1.422 2.568 2.815 3.889 4.136 3.278 3.279 6.697 6.25 10.129 8.825-.602.419-1.202.825-1.801 1.218zm25.517-21.889c0 .551-.448 1-1 1s-1-.449-1-1 .448-1 1-1 1 .449 1 1zm-3.631 1.411c-2.388 3.099-5.049 6.133-7.937 9.021-3.331 3.331-6.879 6.386-10.44 9.014-3.524-2.602-7.047-5.637-10.423-9.014-1.317-1.317-2.615-2.708-3.879-4.128.192-.396.31-.835.31-1.304 0-1.654-1.346-3-3-3-.284 0-.553.052-.813.126-.561-.712-1.105-1.424-1.63-2.137 2.602-3.523 5.636-7.045 9.012-10.42 3.336-3.337 6.88-6.383 10.444-9.011 3.523 2.602 7.044 5.636 10.419 9.011 2.887 2.888 5.548 5.921 7.937 9.021-.228.422-.369.897-.369 1.41s.141.988.369 1.411zm-35.369 2.589c.552 0 1 .449 1 1s-.448 1-1 1-1-.449-1-1 .448-1 1-1zm45 5c0 1.103-.897 2-2 2s-2-.897-2-2 .897-2 2-2 2 .897 2 2zm-2 4c.318 0 .624-.047.921-.117 2.668 6.546 2.761 11.715.219 14.257-2.628 2.629-8.068 2.449-14.932-.492-3.382-1.45-6.937-3.483-10.513-5.979 3.468-2.6 6.912-5.583 10.151-8.823 2.906-2.906 5.586-5.959 7.999-9.078.356.149.746.232 1.155.232.174 0 .343-.023.509-.051.681 1.019 1.318 2.027 1.91 3.021-.861.734-1.419 1.812-1.419 3.03 0 2.206 1.794 4 4 4zm-19-40c1.103 0 2 .897 2 2s-.897 2-2 2-2-.897-2-2 .897-2 2-2zm-2.9 4.739c.729.772 1.756 1.261 2.9 1.261 2.206 0 4-1.794 4-4 0-.357-.062-.696-.15-1.026 7.539-3.533 13.451-3.953 16.29-1.114 3.864 3.864 1.64 13.317-5.63 24.191-.167-.028-.336-.051-.51-.051-.409 0-.799.083-1.154.232-2.414-3.12-5.094-6.172-8-9.078-3.277-3.278-6.695-6.248-10.126-8.823.794-.554 1.588-1.084 2.38-1.592zm-31.24-4.879c2.629-2.627 8.069-2.448 14.932.492 3.382 1.45 6.937 3.483 10.513 5.979-3.469 2.599-6.907 5.579-10.151 8.823-3.28 3.28-6.252 6.699-8.827 10.132-.793-1.137-1.527-2.27-2.223-3.398 1.146-.916 1.896-2.31 1.896-3.888 0-2.757-2.243-5-5-5-.447 0-.872.078-1.285.188-2.337-6.171-2.297-10.885.145-13.328zm13.415 50.081.791 1.837c-.659.284-1.295.538-1.906.763l-.691-1.877c.58-.213 1.182-.454 1.806-.723zm-7.344 2.037.129 1.996c-.272.018-.532.026-.781.026-.513 0-.997-.036-1.438-.107l.318-1.975c.508.082 1.102.104 1.772.06zm3.704-.707.562 1.92c-.697.204-1.38.372-2.029.5l-.387-1.963c.591-.116 1.215-.27 1.854-.457zm41.677-48.583c-.398-.398-1.251-.644-2.339-.674l.055-1.999c1.642.045 2.92.481 3.698 1.259 1.552 1.552 1.709 4.752.443 9.011l-1.918-.57c1.197-4.027.816-6.27.061-7.027zm-.367 7.992 1.895.641c-.226.669-.485 1.362-.771 2.059l-1.852-.758c.271-.659.515-1.312.728-1.942zm-.276 5.767-1.789-.895c.336-.67.644-1.323.923-1.957l1.83.808c-.293.663-.614 1.345-.964 2.044zm-13.648 31.696c.585.316 1.166.616 1.743.899l-.883 1.795c-.599-.294-1.203-.606-1.812-.935zm3.759 1.827c.53.227 1.051.435 1.559.625l-.699 1.874c-.537-.2-1.087-.42-1.645-.659l-.259-.112.801-1.833zm-7.152-3.816c.562.355 1.121.696 1.68 1.023l-1.012 1.726c-.576-.338-1.155-.691-1.736-1.058z" fill="url(#SVGID_1_)"/></svg>