<svg viewBox="0 0 512 512" xmlns="http://www.w3.org/2000/svg"><path d="m502 0h-492c-5.523438 0-10 4.476562-10 10v139.109375c0 5.523437 4.476562 10 10 10h492c5.523438 0 10-4.476563 10-10v-139.109375c0-5.523438-4.476562-10-10-10zm-10 139.109375h-472v-119.109375h472zm0 0"/><path d="m410.679688 102.449219c4.867187 0 9.726562-1.117188 14.175781-3.339844l17.074219 17.070313c1.953124 1.953124 4.511718 2.929687 7.070312 2.929687s5.117188-.976563 7.070312-2.929687c3.90625-3.902344 3.90625-10.234376 0-14.140626l-17.074218-17.074218c5.929687-11.863282 3.960937-26.695313-5.917969-36.578125-12.351563-12.347657-32.449219-12.351563-44.800781 0-12.351563 12.351562-12.351563 32.449219 0 44.800781 6.175781 6.175781 14.289062 9.261719 22.402344 9.261719zm-8.257813-39.917969c2.273437-2.277344 5.265625-3.414062 8.257813-3.414062 2.988281 0 5.980468 1.136718 8.257812 3.414062 4.550781 4.554688 4.550781 11.960938 0 16.515625s-11.960938 4.554687-16.515625 0-4.554687-11.960937 0-16.515625zm0 0"/><path d="m79 119.109375h240c22.054688 0 40-17.945313 40-40s-17.945312-40-40-40h-240c-22.054688 0-40 17.945313-40 40s17.945312 40 40 40zm0-60h240c11.027344 0 20 8.972656 20 20s-8.972656 20-20 20h-240c-11.027344 0-20-8.972656-20-20s8.972656-20 20-20zm0 0"/><path d="m79.769531 82.933594c.25.597656.550781 1.1875.921875 1.730468.359375.550782.777344 1.058594 1.238282 1.519532.460937.460937.96875.878906 1.519531 1.238281.542969.359375 1.121093.671875 1.722656.921875.609375.25 1.238281.4375 1.878906.570312.640625.128907 1.300781.199219 1.949219.199219s1.3125-.070312 1.949219-.199219c.640625-.132812 1.273437-.320312 1.871093-.570312.609376-.25 1.191407-.5625 1.730469-.921875.550781-.359375 1.058594-.777344 1.519531-1.238281.460938-.460938.878907-.96875 1.238282-1.519532.363281-.542968.671875-1.132812.921875-1.730468.25-.601563.449219-1.230469.570312-1.871094.128907-.640625.199219-1.300781.199219-1.949219 0-.648437-.070312-1.308593-.199219-1.960937-.121093-.628906-.320312-1.257813-.570312-1.871094-.25-.597656-.558594-1.179688-.921875-1.71875-.359375-.550781-.777344-1.058594-1.238282-1.519531-.460937-.460938-.96875-.878907-1.519531-1.25-.539062-.359375-1.121093-.671875-1.730469-.921875-.601562-.25-1.230468-.4375-1.871093-.566406-1.289063-.261719-2.617188-.261719-3.898438 0-.640625.128906-1.269531.316406-1.878906.566406-.601563.25-1.179687.5625-1.722656.921875-.550781.371093-1.058594.789062-1.519531 1.25-.460938.460937-.878907.96875-1.238282 1.519531-.371094.539062-.671875 1.121094-.921875 1.71875-.25.613281-.449219 1.242188-.570312 1.871094-.128907.652344-.199219 1.3125-.199219 1.960937 0 .648438.070312 1.308594.199219 1.949219.121093.640625.320312 1.269531.570312 1.871094zm0 0"/><path d="m329 179.109375h-319c-5.523438 0-10 4.476563-10 10v140c0 5.523437 4.476562 10 10 10h319c5.523438 0 10-4.476563 10-10v-140c0-5.523437-4.476562-10-10-10zm-10 140h-299v-120h299zm0 0"/><path d="m502 179.109375h-133c-5.523438 0-10 4.476563-10 10v312.5625c0 5.519531 4.476562 10 10 10h133c5.523438 0 10-4.480469 10-10v-312.5625c0-5.523437-4.476562-10-10-10zm-123 132v-42.199219h113v42.199219zm113 20v40h-113v-40zm-113 60h113v40h-113zm113-192v49.800781h-113v-49.800781zm-113 292.5625v-40.5625h113v40.5625zm0 0"/><path d="m329 359.109375h-319c-5.523438 0-10 4.476563-10 10v132.5625c0 5.519531 4.476562 10 10 10h319c5.523438 0 10-4.480469 10-10v-132.5625c0-5.523437-4.476562-10-10-10zm-10 132.5625h-299v-112.5625h299zm0 0"/><path d="m405 234.003906h60c5.523438 0 10-4.476562 10-10 0-5.523437-4.476562-10-10-10h-60c-5.523438 0-10 4.476563-10 10 0 5.523438 4.476562 10 10 10zm0 0"/><path d="m79 299.109375c22.054688 0 40-17.945313 40-40s-17.945312-40-40-40-40 17.945313-40 40 17.945312 40 40 40zm0-60c11.027344 0 20 8.972656 20 20s-8.972656 20-20 20-20-8.972656-20-20 8.972656-20 20-20zm0 0"/><path d="m159 249.109375h120c5.523438 0 10-4.476563 10-10s-4.476562-10-10-10h-120c-5.523438 0-10 4.476563-10 10s4.476562 10 10 10zm0 0"/><path d="m79 476.390625c22.054688 0 40-17.945313 40-40s-17.945312-40-40-40-40 17.945313-40 40 17.945312 40 40 40zm0-60c11.027344 0 20 8.972656 20 20s-8.972656 20-20 20-20-8.972656-20-20 8.972656-20 20-20zm0 0"/><path d="m159 426.390625h120c5.523438 0 10-4.476563 10-10s-4.476562-10-10-10h-120c-5.523438 0-10 4.476563-10 10s4.476562 10 10 10zm0 0"/><path d="m159 466.390625h120c5.523438 0 10-4.476563 10-10s-4.476562-10-10-10h-120c-5.523438 0-10 4.476563-10 10s4.476562 10 10 10zm0 0"/><path d="m279 269.191406h-15.441406c-5.523438 0-10 4.480469-10 10 0 5.523438 4.476562 10 10 10h15.441406c5.523438 0 10-4.476562 10-10 0-5.519531-4.476562-10-10-10zm0 0"/><path d="m159 289.191406h24.558594c5.519531 0 10-4.476562 10-10 0-5.519531-4.480469-10-10-10h-24.558594c-5.523438 0-10 4.480469-10 10 0 5.523438 4.476562 10 10 10zm0 0"/><path d="m232.460938 275.203125c-.25-.609375-.5625-1.191406-.921876-1.730469-.367187-.550781-.777343-1.058594-1.25-1.519531-.460937-.460937-.96875-.878906-1.519531-1.238281-.539062-.363282-1.121093-.671875-1.71875-.921875-.601562-.25-1.230469-.441407-1.871093-.570313-1.289063-.257812-2.621094-.257812-3.910157 0-.640625.128906-1.269531.320313-1.871093.570313-.597657.25-1.179688.558593-1.726563.921875-.542969.359375-1.0625.777344-1.523437 1.238281-.460938.460937-.878907.96875-1.238282 1.519531-.359375.539063-.671875 1.121094-.921875 1.730469-.25.601563-.4375 1.230469-.566406 1.871094-.132813.640625-.203125 1.296875-.203125 1.949219 0 .648437.070312 1.308593.203125 1.960937.128906.628906.316406 1.257813.566406 1.867187.25.601563.5625 1.179688.921875 1.722657.359375.546875.777344 1.058593 1.238282 1.519531.460937.46875.980468.878906 1.523437 1.25.546875.359375 1.128906.667969 1.726563.917969.601562.25 1.230468.441406 1.871093.570312.648438.132813 1.300781.191407 1.960938.191407 2.628906 0 5.207031-1.058594 7.058593-2.929688.472657-.460938.882813-.972656 1.25-1.519531.359376-.542969.671876-1.121094.921876-1.722657.25-.609374.4375-1.238281.570312-1.867187.128906-.652344.199219-1.3125.199219-1.960937 0-.652344-.070313-1.308594-.199219-1.949219-.132812-.640625-.320312-1.269531-.570312-1.871094zm0 0"/></svg>