<?xml version="1.0" encoding="iso-8859-1"?>
<!-- Generator: Adobe Illustrator 19.0.0, SVG Export Plug-In . SVG Version: 6.00 Build 0)  -->
<svg version="1.1" id="Capa_1" xmlns="http://www.w3.org/2000/svg" xmlns:xlink="http://www.w3.org/1999/xlink" x="0px" y="0px"
	 viewBox="0 0 512 512" style="enable-background:new 0 0 512 512;" xml:space="preserve">
<g>
	<g>
		<path d="M31.439,0c-4.958,0-8.982,4.024-8.982,8.982v134.737c0,4.958,4.024,8.982,8.982,8.982H184.14V0H31.439z M163.544,51.263
			l-62.877,62.877c-1.752,1.752-4.051,2.632-6.351,2.632s-4.599-0.88-6.351-2.632L61.018,87.193c-3.512-3.512-3.512-9.189,0-12.701
			c3.503-3.512,9.198-3.512,12.701,0l20.597,20.597l56.527-56.527c3.503-3.512,9.198-3.512,12.701,0
			C167.056,42.074,167.056,47.751,163.544,51.263z"/>
	</g>
</g>
<g>
	<g>
		<path d="M480.561,0H202.105v152.702h278.456c4.958,0,8.982-4.024,8.982-8.982V8.982C489.544,4.024,485.52,0,480.561,0z
			 M229.053,44.912h152.702c4.958,0,8.982,4.024,8.982,8.982s-4.024,8.982-8.982,8.982H229.053c-4.958,0-8.982-4.024-8.982-8.982
			S224.094,44.912,229.053,44.912z M256,107.789h-26.947c-4.958,0-8.982-4.024-8.982-8.982s4.024-8.982,8.982-8.982H256
			c4.958,0,8.982,4.024,8.982,8.982S260.958,107.789,256,107.789z M444.632,107.789H291.93c-4.958,0-8.982-4.024-8.982-8.982
			s4.024-8.982,8.982-8.982h152.702c4.958,0,8.982,4.024,8.982,8.982S449.59,107.789,444.632,107.789z M444.632,62.877h-26.947
			c-4.958,0-8.982-4.024-8.982-8.982s4.024-8.982,8.982-8.982h26.947c4.958,0,8.982,4.024,8.982,8.982S449.59,62.877,444.632,62.877
			z"/>
	</g>
</g>
<g>
	<g>
		<path d="M31.439,179.649c-4.958,0-8.982,4.024-8.982,8.982v134.737c0,4.958,4.024,8.982,8.982,8.982H184.14V179.649H31.439z
			 M163.544,230.912l-62.877,62.877c-1.752,1.752-4.051,2.632-6.351,2.632s-4.599-0.88-6.351-2.632l-26.947-26.947
			c-3.512-3.512-3.512-9.189,0-12.701c3.503-3.512,9.198-3.512,12.701,0l20.597,20.597l56.527-56.527
			c3.503-3.512,9.198-3.512,12.701,0C167.056,221.723,167.056,227.4,163.544,230.912z"/>
	</g>
</g>
<g>
	<g>
		<path d="M480.561,179.649H202.105v152.702h278.456c4.958,0,8.982-4.024,8.982-8.982V188.632
			C489.544,183.673,485.52,179.649,480.561,179.649z M229.053,224.561h152.702c4.958,0,8.982,4.024,8.982,8.982
			s-4.024,8.982-8.982,8.982H229.053c-4.958,0-8.982-4.024-8.982-8.982S224.094,224.561,229.053,224.561z M256,287.439h-26.947
			c-4.958,0-8.982-4.024-8.982-8.982s4.024-8.982,8.982-8.982H256c4.958,0,8.982,4.024,8.982,8.982S260.958,287.439,256,287.439z
			 M444.632,287.439H291.93c-4.958,0-8.982-4.024-8.982-8.982s4.024-8.982,8.982-8.982h152.702c4.958,0,8.982,4.024,8.982,8.982
			S449.59,287.439,444.632,287.439z M444.632,242.526h-26.947c-4.958,0-8.982-4.024-8.982-8.982s4.024-8.982,8.982-8.982h26.947
			c4.958,0,8.982,4.024,8.982,8.982S449.59,242.526,444.632,242.526z"/>
	</g>
</g>
<g>
	<g>
		<path d="M31.439,359.298c-4.958,0-8.982,4.024-8.982,8.982v134.737c0,4.958,4.024,8.982,8.982,8.982H184.14V359.298H31.439z
			 M163.544,410.561l-62.877,62.877c-1.752,1.752-4.051,2.632-6.351,2.632s-4.599-0.88-6.351-2.632l-26.947-26.947
			c-3.512-3.512-3.512-9.189,0-12.701c3.503-3.512,9.198-3.512,12.701,0l20.597,20.597l56.527-56.527
			c3.503-3.512,9.198-3.512,12.701,0C167.056,401.372,167.056,407.049,163.544,410.561z"/>
	</g>
</g>
<g>
	<g>
		<path d="M480.561,359.298H202.105V512h278.456c4.958,0,8.982-4.024,8.982-8.982V368.281
			C489.544,363.322,485.52,359.298,480.561,359.298z M229.053,404.211h152.702c4.958,0,8.982,4.024,8.982,8.982
			s-4.024,8.982-8.982,8.982H229.053c-4.958,0-8.982-4.024-8.982-8.982S224.094,404.211,229.053,404.211z M256,467.088h-26.947
			c-4.958,0-8.982-4.024-8.982-8.982c0-4.958,4.024-8.982,8.982-8.982H256c4.958,0,8.982,4.024,8.982,8.982
			C264.982,463.064,260.958,467.088,256,467.088z M444.632,467.088H291.93c-4.958,0-8.982-4.024-8.982-8.982
			c0-4.958,4.024-8.982,8.982-8.982h152.702c4.958,0,8.982,4.024,8.982,8.982C453.614,463.064,449.59,467.088,444.632,467.088z
			 M444.632,422.175h-26.947c-4.958,0-8.982-4.024-8.982-8.982s4.024-8.982,8.982-8.982h26.947c4.958,0,8.982,4.024,8.982,8.982
			S449.59,422.175,444.632,422.175z"/>
	</g>
</g>
<g>
</g>
<g>
</g>
<g>
</g>
<g>
</g>
<g>
</g>
<g>
</g>
<g>
</g>
<g>
</g>
<g>
</g>
<g>
</g>
<g>
</g>
<g>
</g>
<g>
</g>
<g>
</g>
<g>
</g>
</svg>
