<svg height="464pt" viewBox="0 0 464 464.00312" width="464pt" xmlns="http://www.w3.org/2000/svg"><path d="m459.679688 144.003906c-5.683594-9.914062-16.25-16.023437-27.679688-16h-32l-13.359375 16-26.640625 32-26.636719-32-13.363281-16h-32c-17.652344.042969-31.953125 14.34375-32 32v144h208v-144c-.003906-5.621094-1.496094-11.140625-4.320312-16zm0 0" fill="#006df0"/><path d="m288 128.003906h24c-17.652344.042969-31.953125 14.34375-32 32v144h-24v-144c.046875-17.65625 14.347656-31.957031 32-32zm0 0" fill="#005ece"/><path d="m203.679688 144.003906c-5.683594-9.914062-16.25-16.023437-27.679688-16h-32l-13.359375 16-26.640625 32-26.636719-32-13.363281-16h-32c-17.652344.042969-31.953125 14.34375-32 32v144h208v-144c-.003906-5.621094-1.496094-11.140625-4.320312-16zm0 0" fill="#ffcd00"/><path d="m331.679688 304.003906c-5.683594-9.914062-16.25-16.023437-27.679688-16h-32l-13.359375 16-26.640625 32-26.636719-32-13.363281-16h-32c-17.652344.042969-31.953125 14.34375-32 32v144h208v-144c-.003906-5.621094-1.496094-11.140625-4.320312-16zm0 0" fill="#ed1c24"/><path d="m32 128.003906h24c-17.652344.042969-31.953125 14.34375-32 32v144h-24v-144c.046875-17.65625 14.347656-31.957031 32-32zm0 0" fill="#ebbf00"/><path d="m160 56.003906c0 30.925782-25.070312 56-56 56-30.925781 0-56-25.074218-56-56 0-30.929687 25.074219-55.99999975 56-55.99999975 30.929688 0 56 25.07031275 56 55.99999975zm0 0" fill="#ffcd00"/><path d="m112 111.363281c-2.640625.457031-5.316406.671875-8 .640625-30.925781 0-56-25.074218-56-56 0-30.929687 25.074219-55.99999975 56-55.99999975 2.683594-.03125005 5.359375.17968775 8 .64062475-27.53125 3.953125-47.976562 27.542969-47.976562 55.359375s20.445312 51.40625 47.976562 55.359375zm0 0" fill="#ebbf00"/><path d="m416 56.003906c0 30.925782-25.070312 56-56 56-30.925781 0-56-25.074218-56-56 0-30.929687 25.074219-55.99999975 56-55.99999975 30.929688 0 56 25.07031275 56 55.99999975zm0 0" fill="#006df0"/><path d="m160 288.003906h24c-17.652344.042969-31.953125 14.34375-32 32v144h-24v-144c.046875-17.65625 14.347656-31.957031 32-32zm0 0" fill="#cd2a00"/><path d="m208 266.5625c15.179688 7.253906 32.824219 7.253906 48 0 19.542969-9.253906 32-28.9375 32-50.558594s-12.457031-41.304687-32-50.5625c-15.175781-7.25-32.820312-7.25-48 0-19.539062 9.257813-31.996094 28.941406-31.996094 50.5625s12.457032 41.304688 31.996094 50.558594zm0 0" fill="#ed1c24"/><path d="m368 111.363281c-2.640625.457031-5.316406.671875-8 .640625-30.925781 0-56-25.074218-56-56 0-30.929687 25.074219-55.99999975 56-55.99999975 2.683594-.03125005 5.359375.17968775 8 .64062475-27.53125 3.953125-47.976562 27.542969-47.976562 55.359375s20.445312 51.40625 47.976562 55.359375zm0 0" fill="#005ece"/><path d="m240 271.363281c-2.640625.457031-5.316406.671875-8 .640625-30.925781 0-56-25.074218-56-56 0-30.929687 25.074219-56 56-56 2.683594-.03125 5.359375.179688 8 .640625-27.53125 3.953125-47.976562 27.542969-47.976562 55.359375s20.445312 51.40625 47.976562 55.359375zm0 0" fill="#cd2a00"/><path d="m176 360.003906c-4.417969 0-8 3.582032-8 8v96h16v-96c0-4.417968-3.582031-8-8-8zm0 0" fill="#be1e2d"/><path d="m288 352.003906c-4.417969 0-8 3.582032-8 8v104h16v-104c0-4.417968-3.582031-8-8-8zm0 0" fill="#be1e2d"/><path d="m48 200.003906c-4.417969 0-8 3.582032-8 8v96h16v-96c0-4.417968-3.582031-8-8-8zm0 0" fill="#ddb200"/><path d="m416 192.003906c-4.417969 0-8 3.582032-8 8v104h16v-104c0-4.417968-3.582031-8-8-8zm0 0" fill="#004fac"/></svg>