<svg id="Layer_1" enable-background="new 0 0 512 512" height="512" viewBox="0 0 512 512" width="512" xmlns="http://www.w3.org/2000/svg"><path d="m512 76v420h-452c-32.999 0-60-27.001-60-60s27.001-90 60-90v-270z" fill="#76e2f8"/><path d="m286 76h226v420h-226z" fill="#4bb9ec"/><path d="m406 136h-286v210h106c24.901 0 45-20.099 45-45s-20.099-45-45-45c-8.401 0-15-6.599-15-15s6.599-15 15-15h60c8.401 0 15 6.599 15 15 0 24.901 20.099 45 45 45s45-20.099 45-45c0-8.401 6.599-15 15-15 24.901 0 45-20.099 45-45s-20.099-45-45-45z" fill="#26bfa6"/><path d="m451 181c0 24.901-20.099 45-45 45-8.401 0-15 6.599-15 15 0 24.901-20.099 45-45 45s-45-20.099-45-45c0-8.401-6.599-15-15-15v-90h120c24.901 0 45 20.099 45 45z" fill="#19a690"/><path d="m361 346h90v30h-90z" fill="#474f54"/><path d="m361 406h90v30h-90z" fill="#474f54"/><path d="m301 346h30v30h-30z" fill="#26bfa6"/><path d="m301 406h30v30h-30z" fill="#26bfa6"/><path d="m150 91v345h-30c0-32.999-27.001-60-60-60s-60 27.001-60 60v-345c0-41.4 33.6-75 75-75 20.7 0 39.6 8.401 53.101 21.899 13.498 13.501 21.899 32.401 21.899 53.101z" fill="#e1ebf0"/></svg>