<?xml version="1.0" encoding="UTF-8"?>
<!DOCTYPE svg  PUBLIC '-//W3C//DTD SVG 1.0//EN'  'http://www.w3.org/TR/2001/REC-SVG-20010904/DTD/svg10.dtd'>
<svg width="136.2mm" height="99.492mm" clip-rule="evenodd" fill-rule="evenodd" image-rendering="optimizeQuality" shape-rendering="geometricPrecision" text-rendering="geometricPrecision" version="1.0" viewBox="0 0 12973 9476" xml:space="preserve" xmlns="http://www.w3.org/2000/svg" xmlns:xlink="http://www.w3.org/1999/xlink">
 <defs>
  <style type="text/css">
    .fil6 {fill:none}
    .fil169 {fill:#F8B676}
    .fil168 {fill:#00A0E3;fill-rule:nonzero}
    .fil148 {fill:url(#a)}
    .fil133 {fill:url(#gf)}
    .fil15 {fill:url(#ji)}
    .fil64 {fill:url(#ju)}
    .fil46 {fill:url(#kf)}
    .fil146 {fill:url(#kq)}
    .fil132 {fill:url(#lc)}
    .fil145 {fill:url(#ln)}
    .fil162 {fill:url(#fo)}
    .fil144 {fill:url(#fz)}
    .fil143 {fill:url(#gg)}
    .fil142 {fill:url(#gs)}
    .fil141 {fill:url(#hd)}
    .fil134 {fill:url(#ho)}
    .fil41 {fill:url(#ia)}
    .fil28 {fill:url(#il)}
    .fil69 {fill:url(#ix)}
    .fil42 {fill:url(#jf)}
    .fil26 {fill:url(#jg)}
    .fil91 {fill:url(#jh)}
    .fil147 {fill:url(#jj)}
    .fil94 {fill:url(#jk)}
    .fil165 {fill:url(#jl)}
    .fil164 {fill:url(#jm)}
    .fil30 {fill:url(#jn)}
    .fil34 {fill:url(#jo)}
    .fil39 {fill:url(#jp)}
    .fil40 {fill:url(#jq)}
    .fil85 {fill:url(#jr)}
    .fil43 {fill:url(#js)}
    .fil27 {fill:url(#jv)}
    .fil25 {fill:url(#jw)}
    .fil112 {fill:url(#jx)}
    .fil121 {fill:url(#jy)}
    .fil126 {fill:url(#jz)}
    .fil125 {fill:url(#ka)}
    .fil76 {fill:url(#kb)}
    .fil38 {fill:url(#kc)}
    .fil70 {fill:url(#kd)}
    .fil68 {fill:url(#ke)}
    .fil67 {fill:url(#kg)}
    .fil44 {fill:url(#kh)}
    .fil66 {fill:url(#ki)}
    .fil65 {fill:url(#kj)}
    .fil45 {fill:url(#kk)}
    .fil63 {fill:url(#kl)}
    .fil90 {fill:url(#km)}
    .fil149 {fill:url(#kn)}
    .fil111 {fill:url(#ko)}
    .fil119 {fill:url(#kp)}
    .fil97 {fill:url(#kr)}
    .fil81 {fill:url(#ks)}
    .fil29 {fill:url(#kt)}
    .fil71 {fill:url(#kv)}
    .fil84 {fill:url(#kw)}
    .fil86 {fill:url(#kx)}
    .fil47 {fill:url(#ky)}
    .fil129 {fill:url(#kz)}
    .fil95 {fill:url(#la)}
    .fil96 {fill:url(#lb)}
    .fil72 {fill:url(#ld)}
    .fil123 {fill:url(#le)}
    .fil92 {fill:url(#lf)}
    .fil93 {fill:url(#lg)}
    .fil50 {fill:url(#lh)}
    .fil77 {fill:url(#li)}
    .fil80 {fill:url(#lj)}
    .fil75 {fill:url(#lk)}
    .fil82 {fill:url(#ll)}
    .fil83 {fill:url(#lm)}
    .fil130 {fill:url(#lo)}
    .fil108 {fill:url(#lp)}
    .fil114 {fill:url(#lq)}
    .fil31 {fill:url(#lr)}
    .fil74 {fill:url(#ls)}
    .fil73 {fill:url(#lt)}
    .fil124 {fill:url(#lu)}
    .fil127 {fill:url(#fl)}
    .fil87 {fill:url(#fm)}
    .fil89 {fill:url(#fn)}
    .fil16 {fill:url(#fp)}
    .fil3 {fill:url(#fq)}
    .fil118 {fill:url(#fr)}
    .fil128 {fill:url(#fs)}
    .fil88 {fill:url(#ft)}
    .fil103 {fill:url(#fu)}
    .fil102 {fill:url(#fv)}
    .fil4 {fill:url(#fw)}
    .fil135 {fill:url(#fx)}
    .fil37 {fill:url(#fy)}
    .fil55 {fill:url(#ga)}
    .fil51 {fill:url(#gb)}
    .fil53 {fill:url(#gc)}
    .fil14 {fill:url(#gd)}
    .fil62 {fill:url(#ge)}
    .fil150 {fill:url(#gq)}
    .fil49 {fill:url(#hr)}
    .fil115 {fill:url(#is)}
    .fil116 {fill:url(#jt)}
    .fil79 {fill:url(#ku)}
    .fil78 {fill:url(#gh)}
    .fil120 {fill:url(#gi)}
    .fil48 {fill:url(#gj)}
    .fil107 {fill:url(#gk)}
    .fil105 {fill:url(#gl)}
    .fil104 {fill:url(#gm)}
    .fil52 {fill:url(#gn)}
    .fil98 {fill:url(#go)}
    .fil32 {fill:url(#gp)}
    .fil24 {fill:url(#gr)}
    .fil2 {fill:url(#gt)}
    .fil117 {fill:url(#gu)}
    .fil106 {fill:url(#gv)}
    .fil33 {fill:url(#gw)}
    .fil131 {fill:url(#gx)}
    .fil122 {fill:url(#gy)}
    .fil99 {fill:url(#gz)}
    .fil56 {fill:url(#ha)}
    .fil8 {fill:url(#hb)}
    .fil101 {fill:url(#hc)}
    .fil5 {fill:url(#he)}
    .fil1 {fill:url(#hf)}
    .fil61 {fill:url(#hg)}
    .fil23 {fill:url(#hh)}
    .fil0 {fill:url(#hi)}
    .fil57 {fill:url(#hj)}
    .fil7 {fill:url(#hk)}
    .fil166 {fill:url(#hl)}
    .fil163 {fill:url(#hm)}
    .fil17 {fill:url(#hn)}
    .fil151 {fill:url(#hp)}
    .fil9 {fill:url(#hq)}
    .fil54 {fill:url(#hs)}
    .fil100 {fill:url(#ht)}
    .fil113 {fill:url(#hu)}
    .fil36 {fill:url(#hv)}
    .fil109 {fill:url(#hw)}
    .fil22 {fill:url(#hx)}
    .fil21 {fill:url(#hy)}
    .fil136 {fill:url(#hz)}
    .fil18 {fill:url(#ib)}
    .fil60 {fill:url(#ic)}
    .fil19 {fill:url(#id)}
    .fil20 {fill:url(#ie)}
    .fil58 {fill:url(#if)}
    .fil10 {fill:url(#ig)}
    .fil110 {fill:url(#ih)}
    .fil167 {fill:url(#ii)}
    .fil161 {fill:url(#ij)}
    .fil59 {fill:url(#ik)}
    .fil35 {fill:url(#im)}
    .fil152 {fill:url(#in)}
    .fil12 {fill:url(#io)}
    .fil11 {fill:url(#ip)}
    .fil13 {fill:url(#iq)}
    .fil153 {fill:url(#ir)}
    .fil137 {fill:url(#it)}
    .fil140 {fill:url(#iu)}
    .fil138 {fill:url(#iv)}
    .fil160 {fill:url(#iw)}
    .fil154 {fill:url(#iy)}
    .fil139 {fill:url(#iz)}
    .fil159 {fill:url(#ja)}
    .fil158 {fill:url(#jb)}
    .fil157 {fill:url(#jc)}
    .fil155 {fill:url(#jd)}
    .fil156 {fill:url(#je)}
  </style>
  <linearGradient id="a" x1="7552.5" x2="7694.4" y1="5156.4" y2="4505" gradientUnits="userSpaceOnUse">
   <stop stop-color="#5B5B5B" offset="0"/>
   <stop stop-color="#FEFEFE" offset="1"/>
  </linearGradient>
  <linearGradient id="gf" x1="7516.9" x2="7438.9" y1="6408.8" y2="5512.3" gradientUnits="userSpaceOnUse" xlink:href="#a">
  </linearGradient>
  <linearGradient id="ji" x1="3767.3" x2="4659.2" y1="3203.7" y2="3173.4" gradientUnits="userSpaceOnUse" xlink:href="#a">
  </linearGradient>
  <linearGradient id="ju" x1="5816.4" x2="6315.3" y1="3158.3" y2="2904.8" gradientUnits="userSpaceOnUse" xlink:href="#a">
  </linearGradient>
  <linearGradient id="kf" x1="4958.2" x2="5647.4" y1="3979.3" y2="3578.2" gradientUnits="userSpaceOnUse" xlink:href="#a">
  </linearGradient>
  <linearGradient id="kq" x1="7466.3" x2="7466.3" y1="5113.2" y2="4512.5" gradientUnits="userSpaceOnUse" xlink:href="#a">
  </linearGradient>
  <linearGradient id="lc" x1="7405.3" x2="7389.8" y1="6392.2" y2="5536.5" gradientUnits="userSpaceOnUse" xlink:href="#a">
  </linearGradient>
  <linearGradient id="ln" x1="7414" x2="7367.9" y1="5127.1" y2="4505.6" gradientUnits="userSpaceOnUse" xlink:href="#a">
  </linearGradient>
  <linearGradient id="fo" x1="8598.4" x2="8550.2" y1="5053.2" y2="4422.1" gradientUnits="userSpaceOnUse" xlink:href="#a">
  </linearGradient>
  <linearGradient id="fz" x1="7340.7" x2="7276.7" y1="5142" y2="4505.4" gradientUnits="userSpaceOnUse" xlink:href="#a">
  </linearGradient>
  <linearGradient id="gg" x1="7263.3" x2="7195.1" y1="5152.3" y2="4511.4" gradientUnits="userSpaceOnUse" xlink:href="#a">
  </linearGradient>
  <linearGradient id="gs" x1="7189.8" x2="7119.4" y1="5163.2" y2="4516.6" gradientUnits="userSpaceOnUse" xlink:href="#a">
  </linearGradient>
  <linearGradient id="hd" x1="7110.8" x2="7038.4" y1="5176.6" y2="4520.7" gradientUnits="userSpaceOnUse" xlink:href="#a">
  </linearGradient>
  <linearGradient id="ho" x1="7666.5" x2="7444.7" y1="6380.2" y2="5515.2" gradientUnits="userSpaceOnUse" xlink:href="#a">
  </linearGradient>
  <linearGradient id="ia" x1="4901.3" x2="5530.5" y1="3387.5" y2="3387.5" gradientUnits="userSpaceOnUse" xlink:href="#a">
  </linearGradient>
  <linearGradient id="il" x1="4485.7" x2="5197.8" y1="3840.5" y2="3840.5" gradientUnits="userSpaceOnUse" xlink:href="#a">
  </linearGradient>
  <linearGradient id="ix" x1="5931.8" x2="6385.1" y1="3415.9" y2="3393.2" gradientUnits="userSpaceOnUse" xlink:href="#a">
  </linearGradient>
  <linearGradient id="jf" x1="4883" x2="5556.1" y1="3494.2" y2="3442.7" gradientUnits="userSpaceOnUse" xlink:href="#a">
  </linearGradient>
  <linearGradient id="jg" x1="4413.8" x2="5208.9" y1="3841.5" y2="3541.4" gradientUnits="userSpaceOnUse" xlink:href="#a">
  </linearGradient>
  <linearGradient id="jh" x1="6585.4" x2="6896.7" y1="3987.5" y2="3541.6" gradientUnits="userSpaceOnUse" xlink:href="#a">
  </linearGradient>
  <linearGradient id="jj" x1="7513.1" x2="7572" y1="5122.6" y2="4512.8" gradientUnits="userSpaceOnUse" xlink:href="#a">
  </linearGradient>
  <linearGradient id="jk" x1="6968.5" x2="6942.9" y1="4019.9" y2="3617.4" gradientUnits="userSpaceOnUse" xlink:href="#a">
  </linearGradient>
  <linearGradient id="jl" x1="9625.7" x2="9580.7" y1="4934.3" y2="4344.9" gradientUnits="userSpaceOnUse" xlink:href="#a">
  </linearGradient>
  <linearGradient id="jm" x1="9714.2" x2="9649.8" y1="5959.5" y2="5136.8" gradientUnits="userSpaceOnUse" xlink:href="#a">
  </linearGradient>
  <linearGradient id="jn" x1="4408.6" x2="5207.8" y1="3794.5" y2="4175.3" gradientUnits="userSpaceOnUse" xlink:href="#a">
  </linearGradient>
  <linearGradient id="jo" x1="4255.9" x2="5103.3" y1="2880.9" y2="3120.9" gradientUnits="userSpaceOnUse" xlink:href="#a">
  </linearGradient>
  <linearGradient id="jp" x1="4892.1" x2="5570.7" y1="3151.4" y2="3307.8" gradientUnits="userSpaceOnUse" xlink:href="#a">
  </linearGradient>
  <linearGradient id="jq" x1="4893.1" x2="5546" y1="3275.3" y2="3341.3" gradientUnits="userSpaceOnUse" xlink:href="#a">
  </linearGradient>
  <linearGradient id="jr" x1="6387.3" x2="6730.6" y1="3361.2" y2="3349.5" gradientUnits="userSpaceOnUse" xlink:href="#a">
  </linearGradient>
  <linearGradient id="js" x1="4899.5" x2="5558.3" y1="3599.4" y2="3500.9" gradientUnits="userSpaceOnUse" xlink:href="#a">
  </linearGradient>
  <linearGradient id="jv" x1="4457.1" x2="5210.1" y1="3831.4" y2="3703.7" gradientUnits="userSpaceOnUse" xlink:href="#a">
  </linearGradient>
  <linearGradient id="jw" x1="4415.9" x2="5131.7" y1="3852.1" y2="3385.8" gradientUnits="userSpaceOnUse" xlink:href="#a">
  </linearGradient>
  <linearGradient id="jx" x1="8564" x2="8538.7" y1="3611.6" y2="3266.4" gradientUnits="userSpaceOnUse" xlink:href="#a">
  </linearGradient>
  <linearGradient id="jy" x1="5113.8" x2="5061" y1="5345.8" y2="4654" gradientUnits="userSpaceOnUse" xlink:href="#a">
  </linearGradient>
  <linearGradient id="jz" x1="6278.8" x2="6216.3" y1="5847.8" y2="5041.5" gradientUnits="userSpaceOnUse" xlink:href="#a">
  </linearGradient>
  <linearGradient id="ka" x1="6407.8" x2="6332.1" y1="6527.4" y2="5569" gradientUnits="userSpaceOnUse" xlink:href="#a">
  </linearGradient>
  <linearGradient id="kb" x1="5761.9" x2="6287.8" y1="3719.6" y2="4118.1" gradientUnits="userSpaceOnUse" xlink:href="#a">
  </linearGradient>
  <linearGradient id="kc" x1="4934.1" x2="5573.9" y1="3025.7" y2="3284" gradientUnits="userSpaceOnUse" xlink:href="#a">
  </linearGradient>
  <linearGradient id="kd" x1="5954.6" x2="6366.7" y1="3479.4" y2="3486.3" gradientUnits="userSpaceOnUse" xlink:href="#a">
  </linearGradient>
  <linearGradient id="ke" x1="5924.5" x2="6378.2" y1="3351" y2="3299.7" gradientUnits="userSpaceOnUse" xlink:href="#a">
  </linearGradient>
  <linearGradient id="kg" x1="5909.5" x2="6369.7" y1="3291.7" y2="3207.6" gradientUnits="userSpaceOnUse" xlink:href="#a">
  </linearGradient>
  <linearGradient id="kh" x1="4911.9" x2="5578.3" y1="3713.9" y2="3549.2" gradientUnits="userSpaceOnUse" xlink:href="#a">
  </linearGradient>
  <linearGradient id="ki" x1="5887" x2="6359.6" y1="3241" y2="3116.8" gradientUnits="userSpaceOnUse" xlink:href="#a">
  </linearGradient>
  <linearGradient id="kj" x1="5855" x2="6342.9" y1="3196" y2="3016.6" gradientUnits="userSpaceOnUse" xlink:href="#a">
  </linearGradient>
  <linearGradient id="kk" x1="4930" x2="5608.4" y1="3838.2" y2="3578.5" gradientUnits="userSpaceOnUse" xlink:href="#a">
  </linearGradient>
  <linearGradient id="kl" x1="5803.4" x2="6247.8" y1="3116.1" y2="2812.7" gradientUnits="userSpaceOnUse" xlink:href="#a">
  </linearGradient>
  <linearGradient id="km" x1="6499.3" x2="6874.1" y1="3893.4" y2="3542.4" gradientUnits="userSpaceOnUse" xlink:href="#a">
  </linearGradient>
  <linearGradient id="kn" x1="7594" x2="7804" y1="5146.8" y2="4558.4" gradientUnits="userSpaceOnUse" xlink:href="#a">
  </linearGradient>
  <linearGradient id="ko" x1="8477.3" x2="8468.8" y1="2590.8" y2="2471.4" gradientUnits="userSpaceOnUse" xlink:href="#a">
  </linearGradient>
  <linearGradient id="kp" x1="4401" x2="4347.9" y1="5402" y2="4705.9" gradientUnits="userSpaceOnUse" xlink:href="#a">
  </linearGradient>
  <linearGradient id="kr" x1="7327.5" x2="7027.6" y1="3924.3" y2="3554.6" gradientUnits="userSpaceOnUse" xlink:href="#a">
  </linearGradient>
  <linearGradient id="ks" x1="6432" x2="6811.2" y1="2945.1" y2="3156.1" gradientUnits="userSpaceOnUse" xlink:href="#a">
  </linearGradient>
  <linearGradient id="kt" x1="4452.6" x2="5213.3" y1="3833.4" y2="3993.9" gradientUnits="userSpaceOnUse" xlink:href="#a">
  </linearGradient>
  <linearGradient id="kv" x1="5940.1" x2="6373.3" y1="3537.8" y2="3577.1" gradientUnits="userSpaceOnUse" xlink:href="#a">
  </linearGradient>
  <linearGradient id="kw" x1="6389.7" x2="6729.7" y1="3266.2" y2="3290.2" gradientUnits="userSpaceOnUse" xlink:href="#a">
  </linearGradient>
  <linearGradient id="kx" x1="6383.1" x2="6747.4" y1="3456.5" y2="3409.7" gradientUnits="userSpaceOnUse" xlink:href="#a">
  </linearGradient>
  <linearGradient id="ky" x1="5074.6" x2="5619.7" y1="4087" y2="3591.6" gradientUnits="userSpaceOnUse" xlink:href="#a">
  </linearGradient>
  <linearGradient id="kz" x1="6181.4" x2="6125.8" y1="5283.2" y2="4555.4" gradientUnits="userSpaceOnUse" xlink:href="#a">
  </linearGradient>
  <linearGradient id="la" x1="7080.2" x2="6983.2" y1="4014.4" y2="3601.7" gradientUnits="userSpaceOnUse" xlink:href="#a">
  </linearGradient>
  <linearGradient id="lb" x1="7204.3" x2="7010.3" y1="3988.1" y2="3576.5" gradientUnits="userSpaceOnUse" xlink:href="#a">
  </linearGradient>
  <linearGradient id="ld" x1="5918.1" x2="6376.8" y1="3588.6" y2="3668" gradientUnits="userSpaceOnUse" xlink:href="#a">
  </linearGradient>
  <linearGradient id="le" x1="5787.3" x2="6289.8" y1="5335.7" y2="5302.5" gradientUnits="userSpaceOnUse" xlink:href="#a">
  </linearGradient>
  <linearGradient id="lf" x1="6723.7" x2="6889.2" y1="4013.2" y2="3584" gradientUnits="userSpaceOnUse" xlink:href="#a">
  </linearGradient>
  <linearGradient id="lg" x1="6853.3" x2="6905" y1="4010.1" y2="3622.3" gradientUnits="userSpaceOnUse" xlink:href="#a">
  </linearGradient>
  <linearGradient id="lh" x1="5553.2" x2="5545" y1="4112.4" y2="3731.3" gradientUnits="userSpaceOnUse" xlink:href="#a">
  </linearGradient>
  <linearGradient id="li" x1="5761.9" x2="6198.1" y1="3756" y2="4186" gradientUnits="userSpaceOnUse" xlink:href="#a">
  </linearGradient>
  <linearGradient id="lj" x1="6508" x2="6818.4" y1="2862.6" y2="3110.7" gradientUnits="userSpaceOnUse" xlink:href="#a">
  </linearGradient>
  <linearGradient id="lk" x1="5804.6" x2="6332" y1="3703.7" y2="4003.2" gradientUnits="userSpaceOnUse" xlink:href="#a">
  </linearGradient>
  <linearGradient id="ll" x1="6399" x2="6781" y1="3053.1" y2="3191.8" gradientUnits="userSpaceOnUse" xlink:href="#a">
  </linearGradient>
  <linearGradient id="lm" x1="6386.2" x2="6752.6" y1="3164" y2="3237.3" gradientUnits="userSpaceOnUse" xlink:href="#a">
  </linearGradient>
  <linearGradient id="lo" x1="6461.1" x2="6816.6" y1="5013.2" y2="4989.6" gradientUnits="userSpaceOnUse" xlink:href="#a">
  </linearGradient>
  <linearGradient id="lp" x1="7601.9" x2="7591.4" y1="2685" y2="2538.2" gradientUnits="userSpaceOnUse" xlink:href="#a">
  </linearGradient>
  <linearGradient id="lq" x1="9875.6" x2="9846.3" y1="3786.7" y2="3390.4" gradientUnits="userSpaceOnUse" xlink:href="#a">
  </linearGradient>
  <linearGradient id="lr" x1="4451.7" x2="5081.2" y1="3800.3" y2="4299.9" gradientUnits="userSpaceOnUse" xlink:href="#a">
  </linearGradient>
  <linearGradient id="ls" x1="5850.5" x2="6356.2" y1="3677.9" y2="3885.6" gradientUnits="userSpaceOnUse" xlink:href="#a">
  </linearGradient>
  <linearGradient id="lt" x1="5890.1" x2="6370.1" y1="3637.4" y2="3770.6" gradientUnits="userSpaceOnUse" xlink:href="#a">
  </linearGradient>
  <linearGradient id="lu" x1="5832.9" x2="6324.5" y1="5905.4" y2="5873" gradientUnits="userSpaceOnUse" xlink:href="#a">
  </linearGradient>
  <linearGradient id="fl" x1="6308.8" x2="6690.5" y1="5551.7" y2="5526.5" gradientUnits="userSpaceOnUse" xlink:href="#a">
  </linearGradient>
  <linearGradient id="fm" x1="6393.7" x2="6766.3" y1="3557.8" y2="3466" gradientUnits="userSpaceOnUse" xlink:href="#a">
  </linearGradient>
  <linearGradient id="fn" x1="6441.6" x2="6839.4" y1="3783.2" y2="3533.3" gradientUnits="userSpaceOnUse" xlink:href="#a">
  </linearGradient>
  <linearGradient id="fp" x1="3882" x2="4584.6" y1="3480.4" y2="3029.7" gradientUnits="userSpaceOnUse" xlink:href="#a">
  </linearGradient>
  <linearGradient id="fq" x1="4363.2" x2="4363.2" y1="4193.3" y2="3825.1" gradientUnits="userSpaceOnUse" xlink:href="#a">
  </linearGradient>
  <linearGradient id="fr" x1="3938.8" x2="4891.4" y1="6026.2" y2="6153.6" gradientUnits="userSpaceOnUse" xlink:href="#a">
  </linearGradient>
  <linearGradient id="fs" x1="6551.1" x2="6890.5" y1="6151.1" y2="6128.6" gradientUnits="userSpaceOnUse" xlink:href="#a">
  </linearGradient>
  <linearGradient id="ft" x1="6411.3" x2="6797.4" y1="3665.7" y2="3509.2" gradientUnits="userSpaceOnUse" xlink:href="#a">
  </linearGradient>
  <linearGradient id="fu" x1="6933.2" x2="6931.1" y1="2695.4" y2="2581" gradientUnits="userSpaceOnUse" xlink:href="#a">
  </linearGradient>
  <linearGradient id="fv" x1="6858.4" x2="6841.7" y1="2720.5" y2="2567.4" gradientUnits="userSpaceOnUse" xlink:href="#a">
  </linearGradient>
  <linearGradient id="fw" x1="4465" x2="4394.4" y1="4246.3" y2="3761.9" gradientUnits="userSpaceOnUse" xlink:href="#a">
  </linearGradient>
  <linearGradient id="fx" x1="7813.3" x2="7450.8" y1="6269.2" y2="5570.7" gradientUnits="userSpaceOnUse" xlink:href="#a">
  </linearGradient>
  <linearGradient id="fy" x1="5037.8" x2="5540.3" y1="2919.6" y2="3250.3" gradientUnits="userSpaceOnUse" xlink:href="#a">
  </linearGradient>
  <linearGradient id="ga" x1="5508.1" x2="5496" y1="2820.8" y2="2653.4" gradientUnits="userSpaceOnUse" xlink:href="#a">
  </linearGradient>
  <linearGradient id="gb" x1="5678.1" x2="5579.6" y1="4135.6" y2="3688.8" gradientUnits="userSpaceOnUse" xlink:href="#a">
  </linearGradient>
  <linearGradient id="gc" x1="5898.6" x2="5603.8" y1="4080.8" y2="3647.7" gradientUnits="userSpaceOnUse" xlink:href="#a">
  </linearGradient>
  <linearGradient id="gd" x1="3893.5" x2="4570.4" y1="2922.9" y2="3301.8" gradientUnits="userSpaceOnUse" xlink:href="#a">
  </linearGradient>
  <linearGradient id="ge" x1="5808" x2="6148.8" y1="3059.3" y2="2750.5" gradientUnits="userSpaceOnUse" xlink:href="#a">
  </linearGradient>
  <linearGradient id="gq" x1="7642.8" x2="7895.4" y1="5126.9" y2="4639.8" gradientUnits="userSpaceOnUse" xlink:href="#a">
  </linearGradient>
  <linearGradient id="hr" x1="5427.4" x2="5526.7" y1="4129.8" y2="3700" gradientUnits="userSpaceOnUse" xlink:href="#a">
  </linearGradient>
  <linearGradient id="is" x1="9339.7" x2="9331.1" y1="2550.2" y2="2428.8" gradientUnits="userSpaceOnUse" xlink:href="#a">
  </linearGradient>
  <linearGradient id="jt" x1="9441.8" x2="9074.1" y1="3228.7" y2="3253.8" gradientUnits="userSpaceOnUse" xlink:href="#a">
  </linearGradient>
  <linearGradient id="ku" x1="6609.3" x2="6823.4" y1="2801.8" y2="3061.2" gradientUnits="userSpaceOnUse" xlink:href="#a">
  </linearGradient>
  <linearGradient id="gh" x1="7060.2" x2="7366.9" y1="2756.8" y2="2885.4" gradientUnits="userSpaceOnUse" xlink:href="#a">
  </linearGradient>
  <linearGradient id="gi" x1="3993" x2="5219.8" y1="5788.7" y2="5299.7" gradientUnits="userSpaceOnUse" xlink:href="#a">
  </linearGradient>
  <linearGradient id="gj" x1="5257.9" x2="5555.5" y1="4136.5" y2="3637.7" gradientUnits="userSpaceOnUse" xlink:href="#a">
  </linearGradient>
  <linearGradient id="gk" x1="7188.6" x2="7279.5" y1="2788" y2="2605.7" gradientUnits="userSpaceOnUse" xlink:href="#a">
  </linearGradient>
  <linearGradient id="gl" x1="7078.3" x2="7107.1" y1="2728.5" y2="2574.8" gradientUnits="userSpaceOnUse" xlink:href="#a">
  </linearGradient>
  <linearGradient id="gm" x1="7008.6" x2="7017.3" y1="2701.3" y2="2579.9" gradientUnits="userSpaceOnUse" xlink:href="#a">
  </linearGradient>
  <linearGradient id="gn" x1="5815.4" x2="5595.5" y1="4119.4" y2="3655.4" gradientUnits="userSpaceOnUse" xlink:href="#a">
  </linearGradient>
  <linearGradient id="go" x1="7371.8" x2="7090" y1="3803.4" y2="3573.7" gradientUnits="userSpaceOnUse" xlink:href="#a">
  </linearGradient>
  <linearGradient id="gp" x1="4476.8" x2="4940.4" y1="3833" y2="4383.5" gradientUnits="userSpaceOnUse" xlink:href="#a">
  </linearGradient>
  <linearGradient id="gr" x1="4488.2" x2="4956.1" y1="3794.9" y2="3318.6" gradientUnits="userSpaceOnUse" xlink:href="#a">
  </linearGradient>
  <linearGradient id="gt" x1="4251.4" x2="4330.4" y1="4222.7" y2="3781.3" gradientUnits="userSpaceOnUse" xlink:href="#a">
  </linearGradient>
  <linearGradient id="gu" x1="4482.8" x2="5479.7" y1="5910.5" y2="6202.4" gradientUnits="userSpaceOnUse" xlink:href="#a">
  </linearGradient>
  <linearGradient id="gv" x1="7142.3" x2="7200.7" y1="2758.5" y2="2586.4" gradientUnits="userSpaceOnUse" xlink:href="#a">
  </linearGradient>
  <linearGradient id="gw" x1="4502" x2="4837.5" y1="3880.9" y2="4397.3" gradientUnits="userSpaceOnUse" xlink:href="#a">
  </linearGradient>
  <linearGradient id="gx" x1="7189.6" x2="7456.1" y1="5564.4" y2="5546.7" gradientUnits="userSpaceOnUse" xlink:href="#a">
  </linearGradient>
  <linearGradient id="gy" x1="4781" x2="5870.4" y1="5885.9" y2="5585.5" gradientUnits="userSpaceOnUse" xlink:href="#a">
  </linearGradient>
  <linearGradient id="gz" x1="7134.8" x2="7483.8" y1="3881.5" y2="3645.7" gradientUnits="userSpaceOnUse" xlink:href="#a">
  </linearGradient>
  <linearGradient id="ha" x1="5570.9" x2="5572.1" y1="2790.8" y2="2678.3" gradientUnits="userSpaceOnUse" xlink:href="#a">
  </linearGradient>
  <linearGradient id="hb" x1="4397.6" x2="4392.6" y1="2890.8" y2="2746.3" gradientUnits="userSpaceOnUse" xlink:href="#a">
  </linearGradient>
  <linearGradient id="hc" x1="6790.3" x2="6751" y1="2741.8" y2="2574.4" gradientUnits="userSpaceOnUse" xlink:href="#a">
  </linearGradient>
  <linearGradient id="he" x1="4580.7" x2="4409.9" y1="4233.5" y2="3745.2" gradientUnits="userSpaceOnUse" xlink:href="#a">
  </linearGradient>
  <linearGradient id="hf" x1="4125.3" x2="4302.9" y1="4231.4" y2="3733.3" gradientUnits="userSpaceOnUse" xlink:href="#a">
  </linearGradient>
  <linearGradient id="hg" x1="5806.1" x2="6042.6" y1="2997.4" y2="2709.7" gradientUnits="userSpaceOnUse" xlink:href="#a">
  </linearGradient>
  <linearGradient id="hh" x1="4507.6" x2="4805.8" y1="3735.4" y2="3274.4" gradientUnits="userSpaceOnUse" xlink:href="#a">
  </linearGradient>
  <linearGradient id="hi" x1="4002" x2="4277.5" y1="4216.9" y2="3684.4" gradientUnits="userSpaceOnUse" xlink:href="#a">
  </linearGradient>
  <linearGradient id="hj" x1="5637.7" x2="5655" y1="2816.5" y2="2663.7" gradientUnits="userSpaceOnUse" xlink:href="#a">
  </linearGradient>
  <linearGradient id="hk" x1="4329.8" x2="4300" y1="2935" y2="2716.3" gradientUnits="userSpaceOnUse" xlink:href="#a">
  </linearGradient>
  <linearGradient id="hl" x1="10048" x2="9428.1" y1="5193.2" y2="5444.5" gradientUnits="userSpaceOnUse" xlink:href="#a">
  </linearGradient>
  <linearGradient id="hm" x1="10270" x2="9681.9" y1="5727.9" y2="5987.8" gradientUnits="userSpaceOnUse" xlink:href="#a">
  </linearGradient>
  <linearGradient id="hn" x1="4084.1" x2="4467.3" y1="3527.2" y2="3080.1" gradientUnits="userSpaceOnUse" xlink:href="#a">
  </linearGradient>
  <linearGradient id="hp" x1="7703.6" x2="7964.2" y1="5106.9" y2="4739.1" gradientUnits="userSpaceOnUse" xlink:href="#a">
  </linearGradient>
  <linearGradient id="hq" x1="4472.6" x2="4479.8" y1="2889.6" y2="2748.5" gradientUnits="userSpaceOnUse" xlink:href="#a">
  </linearGradient>
  <linearGradient id="hs" x1="5445.5" x2="5410.2" y1="2843.5" y2="2651.1" gradientUnits="userSpaceOnUse" xlink:href="#a">
  </linearGradient>
  <linearGradient id="ht" x1="6730.7" x2="6660.5" y1="2773.4" y2="2590" gradientUnits="userSpaceOnUse" xlink:href="#a">
  </linearGradient>
  <linearGradient id="hu" x1="8783.9" x2="8431.7" y1="3139" y2="3281.7" gradientUnits="userSpaceOnUse" xlink:href="#a">
  </linearGradient>
  <linearGradient id="hv" x1="5185.6" x2="5484.6" y1="2866.3" y2="3190.4" gradientUnits="userSpaceOnUse" xlink:href="#a">
  </linearGradient>
  <linearGradient id="hw" x1="7678.9" x2="7868.3" y1="3355.2" y2="3342.5" gradientUnits="userSpaceOnUse" xlink:href="#a">
  </linearGradient>
  <linearGradient id="hx" x1="4484.6" x2="4688.2" y1="3670.4" y2="3257.9" gradientUnits="userSpaceOnUse" xlink:href="#a">
  </linearGradient>
  <linearGradient id="hy" x1="4436.4" x2="4601.1" y1="3628.5" y2="3237.2" gradientUnits="userSpaceOnUse" xlink:href="#a">
  </linearGradient>
  <linearGradient id="hz" x1="7885.3" x2="7509.4" y1="6090.1" y2="5662.9" gradientUnits="userSpaceOnUse" xlink:href="#a">
  </linearGradient>
  <linearGradient id="ib" x1="4204" x2="4462" y1="3555.9" y2="3134.5" gradientUnits="userSpaceOnUse" xlink:href="#a">
  </linearGradient>
  <linearGradient id="ic" x1="5787.1" x2="5941.1" y1="2941.3" y2="2681.2" gradientUnits="userSpaceOnUse" xlink:href="#a">
  </linearGradient>
  <linearGradient id="id" x1="4297.5" x2="4492.7" y1="3577" y2="3180" gradientUnits="userSpaceOnUse" xlink:href="#a">
  </linearGradient>
  <linearGradient id="ie" x1="4373.2" x2="4534.7" y1="3596.1" y2="3214.8" gradientUnits="userSpaceOnUse" xlink:href="#a">
  </linearGradient>
  <linearGradient id="if" x1="5701.5" x2="5748.7" y1="2850.1" y2="2659" gradientUnits="userSpaceOnUse" xlink:href="#a">
  </linearGradient>
  <linearGradient id="ig" x1="4537" x2="4570.2" y1="2927.1" y2="2729" gradientUnits="userSpaceOnUse" xlink:href="#a">
  </linearGradient>
  <linearGradient id="ih" x1="8509.9" x2="7897.9" y1="3410.4" y2="3215.1" gradientUnits="userSpaceOnUse" xlink:href="#a">
  </linearGradient>
  <linearGradient id="ii" x1="9753" x2="8946.7" y1="5550.9" y2="5295.8" gradientUnits="userSpaceOnUse" xlink:href="#a">
  </linearGradient>
  <linearGradient id="ij" x1="8596" x2="8395.9" y1="5486.9" y2="5500.4" gradientUnits="userSpaceOnUse" xlink:href="#a">
  </linearGradient>
  <linearGradient id="ik" x1="5752.1" x2="5843.3" y1="2891.2" y2="2665.3" gradientUnits="userSpaceOnUse" xlink:href="#a">
  </linearGradient>
  <linearGradient id="im" x1="5316.3" x2="5467.2" y1="2842.8" y2="3131.3" gradientUnits="userSpaceOnUse" xlink:href="#a">
  </linearGradient>
  <linearGradient id="in" x1="7768.1" x2="8017.7" y1="5104.6" y2="4837.4" gradientUnits="userSpaceOnUse" xlink:href="#a">
  </linearGradient>
  <linearGradient id="io" x1="4606.5" x2="4774.4" y1="3019" y2="2726.7" gradientUnits="userSpaceOnUse" xlink:href="#a">
  </linearGradient>
  <linearGradient id="ip" x1="4586.6" x2="4675" y1="2974.9" y2="2722.1" gradientUnits="userSpaceOnUse" xlink:href="#a">
  </linearGradient>
  <linearGradient id="iq" x1="4197.2" x2="4377.2" y1="2887.3" y2="3220.3" gradientUnits="userSpaceOnUse" xlink:href="#a">
  </linearGradient>
  <linearGradient id="ir" x1="7828.5" x2="8061.4" y1="5121.1" y2="4930.9" gradientUnits="userSpaceOnUse" xlink:href="#a">
  </linearGradient>
  <linearGradient id="it" x1="7900.7" x2="7602.2" y1="5923.6" y2="5711.3" gradientUnits="userSpaceOnUse" xlink:href="#a">
  </linearGradient>
  <linearGradient id="iu" x1="7883.3" x2="7782.8" y1="5610.5" y2="5596.8" gradientUnits="userSpaceOnUse" xlink:href="#a">
  </linearGradient>
  <linearGradient id="iv" x1="7904.4" x2="7679.2" y1="5799.5" y2="5698.3" gradientUnits="userSpaceOnUse" xlink:href="#a">
  </linearGradient>
  <linearGradient id="iw" x1="8084.1" x2="8094.7" y1="5465.7" y2="5465.5" gradientUnits="userSpaceOnUse" xlink:href="#a">
  </linearGradient>
  <linearGradient id="iy" x1="7891.5" x2="8086.3" y1="5146.7" y2="5027.7" gradientUnits="userSpaceOnUse" xlink:href="#a">
  </linearGradient>
  <linearGradient id="iz" x1="7892.8" x2="7743.4" y1="5694.8" y2="5655.4" gradientUnits="userSpaceOnUse" xlink:href="#a">
  </linearGradient>
  <linearGradient id="ja" x1="8075.6" x2="8099.5" y1="5422.2" y2="5420.9" gradientUnits="userSpaceOnUse" xlink:href="#a">
  </linearGradient>
  <linearGradient id="jb" x1="8060.8" x2="8106" y1="5375.5" y2="5371.2" gradientUnits="userSpaceOnUse" xlink:href="#a">
  </linearGradient>
  <linearGradient id="jc" x1="8031.5" x2="8113.5" y1="5315.1" y2="5300.3" gradientUnits="userSpaceOnUse" xlink:href="#a">
  </linearGradient>
  <linearGradient id="jd" x1="7948.2" x2="8101.5" y1="5188.5" y2="5120.6" gradientUnits="userSpaceOnUse" xlink:href="#a">
  </linearGradient>
  <linearGradient id="je" x1="7995.2" x2="8110.1" y1="5245.3" y2="5210.7" gradientUnits="userSpaceOnUse" xlink:href="#a">
  </linearGradient>
 </defs>
    <path class="fil0" d="m3662 4139l889-420 8 5 9 5 8 5 9 4 8 4 8 4 8 4 9 4-873 428-10-5-10-5-11-5-10-5-11-5-10-6-11-6-10-6z"/>
    <path class="fil1" d="m3745 4182l873-428 8 3 8 4 8 3 8 3 9 3 8 2 8 3 8 2-856 434-10-3-10-3-11-3-10-4-10-4-10-4-10-4-11-4z"/>
    <path class="fil2" d="m3827 4211l856-434 8 2 8 2 8 2 8 2 8 1 8 1 8 1 8 1 8 1-838 437-10-1-10-1-10-2-10-1-10-2-10-2-10-2-10-3-10-2z"/>
    <path class="fil3" d="m3917 4227l838-437 8 1h39l8-1-825 437-9 1h-49l-10-1z"/>
    <path class="fil4" d="m3985 4227l825-437 23-2 21-3 20-4-808 434-25 5-27 4-29 3z"/>
    <path class="fil5" d="m4066 4215l808-434 18-5 17-6 15-7-795 430-19 9-21 7-23 6z"/>
    <path class="fil6" d="m3662 4139l889-420 8 5 9 5 8 5 9 4 8 4 8 4 8 4 9 4 8 3 8 4 8 3 8 3 9 3 8 2 8 3 8 2 8 2 8 2 8 2 8 2 8 1 8 1 8 1 8 1 8 1 8 1h39l8-1 23-2 21-3 20-4 18-5 17-6 15-7-795 430-19 9-21 7-23 6-25 5-27 4-29 3-9 1h-49l-10-1-10-1-10-1-10-2-10-1-10-2-10-2-10-2-10-3-10-2-10-3-10-3-11-3-10-4-10-4-10-4-10-4-11-4-10-5-10-5-11-5-10-5-11-5-10-6-11-6-10-6z"/>
    <path class="fil7" d="m3856 2918l850-175 9-2 10-2 9-1 10-2 10-1 10-1h10l-833 172-12 1-13 1-12 2-12 1-12 2-12 2-12 3z"/>
    <path class="fil8" d="m3941 2906l833-172 13-1 13-1h12l13-1h24l-813 172h-46l-16 1-16 1-17 1z"/>
    <path class="fil9" d="m4036 2903l813-172h23l12 1 11 1h11l11 1-796 173-14-1-14-1-14-1-14-1h-29z"/>
    <path class="fil10" d="m4121 2907l796-173 10 2 11 1 10 1 10 2 10 2 9 2 10 2-779 176-12-3-12-3-12-2-12-2-13-2-13-1-13-2z"/>
    <path class="fil11" d="m4208 2922l779-176 9 2 9 3 8 3 9 3 8 3 8 3 8 3 8 4-762 181-10-4-10-5-10-4-10-3-11-4-11-3-11-3-11-3z"/>
    <path class="fil12" d="m4292 2951l762-181 7 3 8 4 7 4 6 4 7 5-753 186-8-5-9-6-9-5-9-4-9-5z"/>
    <path class="fil6" d="m3856 2918l850-175 9-2 10-2 9-1 10-2 10-1 10-1h10l13-1 13-1h12l13-1h47l12 1 11 1h11l11 1 10 2 11 1 10 1 10 2 10 2 9 2 10 2 9 2 9 3 8 3 9 3 8 3 8 3 8 3 8 4 7 3 8 4 7 4 6 4 7 5-753 186-8-5-9-6-9-5-9-4-9-5-10-4-10-5-10-4-10-3-11-4-11-3-11-3-11-3-12-3-12-3-12-2-12-2-13-2-13-1-13-2-14-1-14-1-14-1-14-1h-75l-16 1-16 1-17 1-12 1-13 1-12 2-12 1-12 2-12 2-12 3z"/>
    <path class="fil13" d="m3908 3141l840-219-8 2-8 3-7 2-7 4-7 3-6 4-6 4-6 4-5 4-6 5-855 229 6-6 7-6 8-5 7-5 8-5 9-4 8-4 9-4 10-3 9-3z"/>
    <path class="fil14" d="m3827 3186l855-229-5 5-4 6-4 5-4 6-4 5-3 6-3 7-3 6-2 6-2 7-2 7-865 244 2-8 3-8 3-8 3-8 4-8 4-7 4-7 5-8 6-6 6-7 6-6z"/>
    <path class="fil15" d="m3781 3267l865-244-1 7-1 7-1 7v23l2 12 4 13-864 263-5-16-2-17v-28l1-9 1-9 1-9z"/>
    <path class="fil16" d="m3785 3355l864-263 5 13 8 13 9 12 11 13-856 275-14-16-11-16-9-16-7-15z"/>
    <path class="fil17" d="m3826 3418l856-275 12 12 15 13 16 12-844 284-21-15-18-16-16-15z"/>
    <path class="fil18" d="m3881 3464l844-284 19 12 20 13 21 12-829 293-28-15-25-15-22-16z"/>
    <path class="fil19" d="m3956 3510l829-293 24 12 26 12-818 299-32-15-29-15z"/>
    <path class="fil20" d="m4017 3540l818-299 27 12 29 12-803 305-37-15-34-15z"/>
    <path class="fil21" d="m4088 3570l803-305 15 6 15 6 15 6 14 7-789 311-17-8-18-7-19-8-19-8z"/>
    <path class="fil22" d="m4161 3601l789-311 13 6 13 6 12 6 12 6 11 6-773 319-14-8-14-7-16-8-16-7-17-8z"/>
    <path class="fil23" d="m4238 3639l773-319 11 6 10 6 10 6 9 6 8 5 9 6 7 6-757 329-9-7-10-7-11-8-11-7-12-7-13-8-14-7z"/>
    <path class="fil24" d="m4318 3690l757-329 7 6 7 6 7 6 6 6 7 6 6 7 6 6 5 7-744 342-7-9-7-8-8-8-8-8-8-8-9-7-8-8-9-7z"/>
    <path class="fil25" d="m4382 3753l744-342 6 7 5 7 5 7 5 8 5 7 5 8 4 8 4 7-734 357-5-10-6-10-5-9-6-10-7-9-6-9-7-9-7-8z"/>
    <path class="fil26" d="m4431 3827l734-357 4 9 4 8 4 8 3 9 3 8 3 9 3 9 3 9-728 374-3-12-4-11-3-11-4-11-5-10-4-11-5-10-5-10z"/>
    <path class="fil27" d="m4464 3913l728-374 2 9 2 9 2 10 2 9 1 10 1 10 1 10-725 390-1-12-1-13-2-12-2-12-3-11-2-12-3-11z"/>
    <path class="fil28" d="m4478 3996l725-390 1 10 1 18v18l-1 17-725 406 1-22 1-22-1-22-2-13z"/>
    <path class="fil29" d="m4479 4075l725-406-2 17-3 17-4 16-5 16-728 423 6-20 5-20 4-21 2-22z"/>
    <path class="fil30" d="m4462 4158l728-423-5 16-7 16-8 15-8 14-736 438 11-18 9-19 9-19 7-20z"/>
    <path class="fil31" d="m4426 4234l736-438-10 15-10 14-12 14-12 13-747 452 16-17 14-17 13-18 12-18z"/>
    <path class="fil32" d="m4371 4304l747-452-13 13-7 6-8 6-7 7-7 5-8 6-8 6-761 464 10-7 10-7 9-8 9-7 9-8 9-8 16-16z"/>
    <path class="fil33" d="m4299 4365l761-464-8 5-8 5-765 467 10-7 10-6z"/>
    <path class="fil6" d="m3908 3141l840-219-8 2-8 3-7 2-7 4-7 3-6 4-6 4-6 4-5 4-6 5-5 5-4 6-4 5-4 6-4 5-3 6-3 7-3 6-2 6-2 7-2 7-1 7-1 7-1 7v23l2 12 4 13 5 13 8 13 9 12 11 13 12 12 15 13 16 12 19 12 20 13 21 12 24 12 26 12 27 12 29 12 15 6 15 6 15 6 14 7 13 6 13 6 12 6 12 6 11 6 11 6 10 6 10 6 9 6 8 5 9 6 7 6 7 6 7 6 7 6 6 6 7 6 6 7 6 6 5 7 6 7 5 7 5 7 5 8 5 7 5 8 4 8 4 7 4 9 4 8 4 8 3 9 3 8 3 9 3 9 3 9 2 9 2 9 2 10 2 9 1 10 1 10 1 10 1 10 1 18v18l-1 17-2 17-3 17-4 16-5 16-5 16-7 16-8 15-8 14-10 15-10 14-12 14-12 13-13 13-7 6-8 6-7 7-7 5-8 6-8 6-8 5-8 5-765 467 10-7 10-6 10-7 10-7 9-8 9-7 9-8 9-8 16-16 16-17 14-17 13-18 12-18 11-18 9-19 9-19 7-20 6-20 5-20 4-21 2-22 1-22 1-22-1-22-2-13-1-12-1-13-2-12-2-12-3-11-2-12-3-11-3-12-4-11-3-11-4-11-5-10-4-11-5-10-5-10-5-10-6-10-5-9-6-10-7-9-6-9-7-9-7-8-7-9-7-8-8-8-8-8-8-8-9-7-8-8-9-7-9-7-10-7-11-8-11-7-12-7-13-8-14-7-14-8-14-7-16-8-16-7-17-8-17-8-18-7-19-8-19-8-37-15-34-15-32-15-29-15-28-15-25-15-22-16-21-15-18-16-16-15-14-16-11-16-9-16-7-15-5-16-2-17v-28l1-9 1-9 1-9 2-8 3-8 3-8 3-8 4-8 4-7 4-7 5-8 6-6 6-7 6-6 6-6 7-6 8-5 7-5 8-5 9-4 8-4 9-4 10-3 9-3z"/>
    <path class="fil34" d="m4336 2976l753-186-52 189-767 233 66-236z"/>
    <path class="fil6" d="m4336 2976l753-186-52 189-767 233 66-236z"/>
    <path class="fil35" d="m5130 3071l593-205-14 6-14 7-14 8-13 8-608 213 16-11 17-9 18-9 19-8z"/>
    <path class="fil36" d="m5060 3108l608-213-12 10-12 10-12 11-10 12-620 223 14-15 14-14 15-12 15-12z"/>
    <path class="fil37" d="m5002 3161l620-223-10 13-10 14-9 14-4 8-4 7-629 238 5-10 6-9 11-19 12-17 12-16z"/>
    <path class="fil38" d="m4956 3232l629-238-4 8-4 8-3 8-4 9-3 8-3 9-3 8-3 9-635 254 3-11 4-11 4-10 4-11 4-10 5-10 4-10 5-10z"/>
    <path class="fil39" d="m4923 3315l635-254-2 9-3 9-2 10-2 9-2 10-2 10-1 9-640 271 2-12 3-13 2-12 3-11 3-12 3-11 3-12z"/>
    <path class="fil40" d="m4904 3398l640-271-2 10-1 11-1 10-1 10-1 11-1 11v11l-641 288v-13l1-14 1-13 1-13 2-13 2-13 1-12z"/>
    <path class="fil41" d="m4896 3489l641-288-1 11v45l1 12-641 305-1-14v-57l1-14z"/>
    <path class="fil42" d="m4896 3574l641-305 1 12v12l1 13 1 13 2 12 1 13-639 324-2-15-2-16-1-16-1-17-1-15-1-15z"/>
    <path class="fil43" d="m4904 3668l639-324 2 12 1 12 2 12 2 12 2 11 2 11-637 343-2-15-3-14-2-15-2-14-2-15-2-16z"/>
    <path class="fil44" d="m4917 3757l637-343 2 12 3 10 2 11 3 11 3 10 3 10 3 10-632 361-4-13-4-12-3-13-4-14-3-13-3-14-3-13z"/>
    <path class="fil45" d="m4941 3849l632-361 3 10 3 9 4 10 3 9 4 9 4 9 4 8-626 377-5-11-5-11-4-11-5-12-4-11-4-12-4-12z"/>
    <path class="fil46" d="m4972 3929l626-377 4 9 4 8 4 8 5 7 4 8 5 7 5 8 5 7-617 391-6-8-6-9-6-10-6-9-5-10-6-10-5-10-5-10z"/>
    <path class="fil47" d="m5017 4005l617-391 10 13 11 12 11 12 11 10-606 404-14-13-14-15-13-15-13-17z"/>
    <path class="fil48" d="m5071 4065l606-404 12 10 13 8 13 8 13 7 14 6-590 413-17-7-17-9-16-9-15-11-16-12z"/>
    <path class="fil49" d="m5152 4113l590-413 14 5 15 4 15 3 16 2-575 416-19-2-19-4-19-5-18-6z"/>
    <path class="fil50" d="m5227 4130l575-416 16 1h16l17-1 20-2-557 416-25 3-21 1-21-1-20-1z"/>
    <path class="fil51" d="m5314 4128l557-416 19-3 19-3 18-5 17-5-539 412-22 7-22 5-23 5-24 3z"/>
    <path class="fil52" d="m5405 4108l539-412 16-6 16-7 15-8 15-8-523 404-19 11-19 10-20 9-20 7z"/>
    <path class="fil53" d="m5483 4071l523-404 14-10-520 402-17 12z"/>
    <path class="fil6" d="m5130 3071l593-205-14 6-14 7-14 8-13 8-12 10-12 10-12 11-10 12-10 13-10 14-9 14-4 8-4 7-4 8-4 8-3 8-4 9-3 8-3 9-3 8-3 9-2 9-3 9-2 10-2 9-2 10-2 10-1 9-2 10-1 11-1 10-1 10-1 11-1 11v11l-1 11v45l1 12 1 12v12l1 13 1 13 2 12 1 13 2 12 1 12 2 12 2 12 2 11 2 11 2 12 3 10 2 11 3 11 3 10 3 10 3 10 3 10 3 9 4 10 3 9 4 9 4 9 4 8 4 9 4 8 4 8 5 7 4 8 5 7 5 8 5 7 10 13 11 12 11 12 11 10 12 10 13 8 13 8 13 7 14 6 14 5 15 4 15 3 16 2 16 1h16l17-1 20-2 19-3 19-3 18-5 17-5 16-6 16-7 15-8 15-8 14-10-520 402-17 12-19 11-19 10-20 9-20 7-22 7-22 5-23 5-24 3-25 3-21 1-21-1-20-1-19-2-19-4-19-5-18-6-17-7-17-9-16-9-15-11-16-12-14-13-14-15-13-15-13-17-6-8-6-9-6-10-6-9-5-10-6-10-5-10-5-10-5-11-5-11-4-11-5-12-4-11-4-12-4-12-4-13-4-12-3-13-4-14-3-13-3-14-3-13-2-15-3-14-2-15-2-14-2-15-2-16-2-15-2-16-1-16-1-17-1-15-1-15-1-14v-57l1-14v-13l1-14 1-13 1-13 2-13 2-13 1-12 2-12 3-13 2-12 3-11 3-12 3-11 3-12 3-11 4-11 4-10 4-11 4-10 5-10 4-10 5-10 5-10 6-9 11-19 12-17 12-16 14-15 14-14 15-12 15-12 16-11 17-9 18-9 19-8z"/>
    <path class="fil54" d="m5092 2832l602-157 13-3 14-3 14-3 14-2 14-2-584 154-18 3-17 3-18 3-17 3-17 4z"/>
    <path class="fil55" d="m5179 2816l584-154 15-1 15-2 16-1h16l-569 153-20 1-20 1-18 2-19 1z"/>
    <path class="fil56" d="m5256 2811l569-153 16-1h15l15 1h16l-553 154-19-1-19-1h-20l-20 1z"/>
    <path class="fil57" d="m5334 2812l553-154 15 1 14 2 15 1 14 2 14 3-535 155-17-3-18-2-18-2-19-2-18-1z"/>
    <path class="fil58" d="m5424 2822l535-155 14 2 13 3 14 3 13 4 13 4-518 159-16-4-17-5-16-4-17-4-18-3z"/>
    <path class="fil59" d="m5508 2842l518-159 13 4 12 5 13 5 12 5 11 6-502 165-15-7-15-6-16-6-15-6-16-6z"/>
    <path class="fil60" d="m5585 2873l502-165 12 6 12 6 11 7 11 7 10 7-488 174-14-9-13-9-14-8-15-8-14-8z"/>
    <path class="fil61" d="m5655 2915l488-174 11 7 10 8 10 9 10 8 10 9-476 184-12-11-13-11-12-10-13-10-13-9z"/>
    <path class="fil62" d="m5718 2966l476-184 9 9 10 10 9 10 8 10 9 10-465 197-11-13-11-13-11-12-11-12-12-12z"/>
    <path class="fil63" d="m5774 3028l465-197 8 11 8 11 8 11 7 12 7 11-455 210-9-14-9-15-10-13-10-14-10-13z"/>
    <path class="fil64" d="m5822 3097l455-210 7 12 7 13 6 12 7 13 6 13-448 226-7-17-8-16-8-15-8-16-9-15z"/>
    <path class="fil65" d="m5862 3176l448-226 5 13 6 14 5 14 5 14 5 15-441 243-6-18-6-18-7-17-7-18-7-16z"/>
    <path class="fil66" d="m5895 3263l441-243 4 14 4 15 4 16 4 15-437 258-4-19-5-19-6-19-5-18z"/>
    <path class="fil67" d="m5915 3338l437-258 3 16 3 16 3 16 3 17-434 274-3-21-4-20-4-20-4-20z"/>
    <path class="fil68" d="m5930 3419l434-274 3 17 2 17 2 17 1 18-431 292-2-22-3-22-3-22-3-21z"/>
    <path class="fil69" d="m5941 3506l431-292 2 18 1 18 1 18v18l-430 309-1-22-1-22-2-23-1-22z"/>
    <path class="fil70" d="m5946 3595l430-309 1 17v17l-1 17v17l-431 326v-21l1-21v-43z"/>
    <path class="fil71" d="m5945 3680l431-326-1 16-2 17-1 16-2 16-432 342 2-20 2-20 2-20 1-21z"/>
    <path class="fil72" d="m5938 3761l432-342-2 15-2 16-3 15-3 15-435 358 4-19 3-19 3-19 3-20z"/>
    <path class="fil73" d="m5925 3838l435-358-4 15-3 15-4 14-4 14-5 14-440 376 6-18 5-17 5-18 5-19 4-18z"/>
    <path class="fil74" d="m5900 3928l440-376-5 14-5 13-5 14-6 13-6 13-446 392 7-16 7-16 7-17 6-17 6-17z"/>
    <path class="fil75" d="m5867 4011l446-392-6 13-7 12-7 12-7 12-7 12-456 408 10-15 9-15 8-15 9-16 8-16z"/>
    <path class="fil76" d="m5823 4088l456-408-8 12-8 11-9 11-8 11-9 11-466 422 11-14 11-13 10-14 11-14 9-15z"/>
    <path class="fil77" d="m5771 4158l466-422-9 10-10 10-9 10-10 9-476 431 13-11 12-12 12-13 11-12z"/>
    <path class="fil6" d="m5092 2832l602-157 13-3 14-3 14-3 14-2 14-2 15-1 15-2 16-1h16l16-1h15l15 1h16l15 1 14 2 15 1 14 2 14 3 14 2 13 3 14 3 13 4 13 4 13 4 12 5 13 5 12 5 11 6 12 6 12 6 11 7 11 7 10 7 11 7 10 8 10 9 10 8 10 9 9 9 10 10 9 10 8 10 9 10 8 11 8 11 8 11 7 12 7 11 7 12 7 13 6 12 7 13 6 13 5 13 6 14 5 14 5 14 5 15 4 14 4 15 4 16 4 15 3 16 3 16 3 16 3 17 3 17 2 17 2 17 1 18 2 18 1 18 1 18v18l1 17v17l-1 17v17l-1 16-2 17-1 16-2 16-2 15-2 16-3 15-3 15-4 15-3 15-4 14-4 14-5 14-5 14-5 13-5 14-6 13-6 13-6 13-7 12-7 12-7 12-7 12-8 12-8 11-9 11-8 11-9 11-9 10-10 10-9 10-10 9-476 431 13-11 12-12 12-13 11-12 11-14 11-13 10-14 11-14 9-15 10-15 9-15 8-15 9-16 8-16 7-16 7-16 7-17 6-17 6-17 6-18 5-17 5-18 5-19 4-18 4-19 3-19 3-19 3-20 2-20 2-20 2-20 1-21v-21l1-21v-43l-1-22-1-22-2-23-1-22-2-22-3-22-3-22-3-21-3-21-4-20-4-20-4-20-4-19-5-19-6-19-5-18-6-18-6-18-7-17-7-18-7-16-7-17-8-16-8-15-8-16-9-15-9-14-9-15-10-13-10-14-10-13-11-13-11-13-11-12-11-12-12-12-12-11-13-11-12-10-13-10-13-9-14-9-13-9-14-8-15-8-14-8-15-7-15-6-16-6-15-6-16-6-16-4-17-5-16-4-17-4-18-3-17-3-18-2-18-2-19-2-18-1-19-1-19-1h-20l-20 1-20 1-20 1-18 2-19 1-18 3-17 3-18 3-17 3-17 4z"/>
    <path class="fil78" d="m7167 2781l187-147-75 182-206 192 94-227z"/>
    <path class="fil6" d="m7167 2781l187-147-75 182-206 192 94-227z"/>
    <path class="fil79" d="m6601 2998l299-190-7 5-7 5-7 5-7 6-7 6-6 6-7 6-6 6-314 202 8-8 8-8 9-8 8-7 9-7 9-6 9-7 9-6z"/>
    <path class="fil80" d="m6532 3055l314-202-7 7-6 7-6 7-6 8-5 7-6 8-6 8-323 215 7-10 7-10 7-10 7-9 8-9 7-9 8-8z"/>
    <path class="fil81" d="m6481 3120l323-215-5 9-5 8-5 9-5 8-4 9-5 9-4 9-332 230 5-12 6-11 5-11 6-10 6-11 7-11 7-10z"/>
    <path class="fil82" d="m6439 3196l332-230-4 9-4 10-3 9-4 9-3 10-3 10-3 10-338 246 4-13 3-12 4-12 5-12 4-11 5-12 5-11z"/>
    <path class="fil83" d="m6409 3279l338-246-2 10-3 10-2 10-2 10-2 11-1 10-2 11-341 264 1-14 2-13 3-13 2-13 3-12 3-13 3-12z"/>
    <path class="fil84" d="m6392 3369l341-264-1 10-1 11-1 11v11l-1 12v11l-343 281 1-15v-14l1-13 1-14 1-14 2-13z"/>
    <path class="fil85" d="m6386 3452l343-281v35l1 12 1 12 1 12-342 298-1-15-1-15-1-15-1-15v-28z"/>
    <path class="fil86" d="m6390 3540l342-298 1 11 1 12 2 11 1 12 2 11 2 11-340 315-2-14-3-14-2-14-1-14-2-15-1-14z"/>
    <path class="fil87" d="m6401 3625l340-315 2 10 2 11 3 10 2 11 3 10 3 10 3 9-335 333-4-12-4-12-3-13-3-13-3-13-3-13-3-13z"/>
    <path class="fil88" d="m6424 3714l335-333 3 10 4 9 3 10 4 9 4 9 4 8 4 9-329 349-5-11-5-11-5-11-5-12-4-11-4-12-4-12z"/>
    <path class="fil89" d="m6456 3794l329-349 4 8 5 9 5 8 5 8 5 7 5 8 5 7 6 7-319 365-7-9-7-10-6-9-7-10-6-10-6-10-5-10-6-10z"/>
    <path class="fil90" d="m6506 3872l319-365 5 8 6 6 6 7 13 13 13 12-309 375-16-15-15-16-8-8-7-9-7-8z"/>
    <path class="fil91" d="m6559 3928l309-375 13 11 13 10 14 9 15 8-295 385-18-10-17-11-17-13-17-14z"/>
    <path class="fil92" d="m6628 3976l295-385 15 8 15 6 16 6 16 4-279 391-21-6-19-7-19-8-19-9z"/>
    <path class="fil93" d="m6706 4006l279-391 16 4 17 2 17 2 18 1-262 393-22-1-22-2-21-4-20-4z"/>
    <path class="fil94" d="m6791 4017l262-393h18l18-1 11-1 10-1 11-1-246 392-12 2-13 1-14 1-23 1h-22z"/>
    <path class="fil95" d="m6875 4012l246-392 10-2 10-1 9-2 10-3 9-2 10-3 9-3-228 388-12 4-11 3-12 3-12 3-12 3-13 2-13 2z"/>
    <path class="fil96" d="m6960 3992l228-388 9-3 9-3 8-4 9-4 8-4 8-4 8-5 8-4-212 380-9 5-10 6-11 5-10 6-10 4-11 5-11 4-11 4z"/>
    <path class="fil97" d="m7043 3953l212-380 8-5 7-6 8-5 7-6 7-6 7-6 6-6 7-7-198 369-8 8-8 8-9 8-9 7-9 7-9 7-9 6-10 7z"/>
    <path class="fil98" d="m7114 3895l198-369 6-6 6-7 6-8 6-7 6-8 6-8-189 358-7 10-7 9-8 10-7 9-8 8-8 9z"/>
    <path class="fil6" d="m6601 2998l299-190-7 5-7 5-7 5-7 6-7 6-6 6-7 6-6 6-7 7-6 7-6 7-6 8-5 7-6 8-6 8-5 9-5 8-5 9-5 8-4 9-5 9-4 9-4 9-4 10-3 9-4 9-3 10-3 10-3 10-2 10-3 10-2 10-2 10-2 11-1 10-2 11-1 10-1 11-1 11v11l-1 12v46l1 12 1 12 1 12 1 11 1 12 2 11 1 12 2 11 2 11 2 10 2 11 3 10 2 11 3 10 3 10 3 9 3 10 4 9 3 10 4 9 4 9 4 8 4 9 4 8 5 9 5 8 5 8 5 7 5 8 5 7 6 7 5 8 6 6 6 7 13 13 13 12 13 11 13 10 14 9 15 8 15 8 15 6 16 6 16 4 16 4 17 2 17 2 18 1h18l18-1 11-1 10-1 11-1 10-2 10-1 9-2 10-3 9-2 10-3 9-3 9-3 9-3 8-4 9-4 8-4 8-4 8-5 8-4 8-5 7-6 8-5 7-6 7-6 7-6 6-6 7-7 6-6 6-7 6-8 6-7 6-8 6-8-189 358-7 10-7 9-8 10-7 9-8 8-8 9-8 8-8 8-9 8-9 7-9 7-9 7-9 6-10 7-9 5-10 6-11 5-10 6-10 4-11 5-11 4-11 4-12 4-11 3-12 3-12 3-12 3-13 2-13 2-12 2-13 1-14 1-23 1h-22l-22-1-22-2-21-4-20-4-21-6-19-7-19-8-19-9-18-10-17-11-17-13-17-14-16-15-15-16-8-8-7-9-7-8-7-9-7-10-6-9-7-10-6-10-6-10-5-10-6-10-5-11-5-11-5-11-5-12-4-11-4-12-4-12-4-12-4-12-3-13-3-13-3-13-3-13-3-13-2-14-3-14-2-14-1-14-2-15-1-14-1-15-1-15-1-15-1-15v-28l1-15v-14l1-13 1-14 1-14 2-13 1-14 2-13 3-13 2-13 3-12 3-13 3-12 4-13 3-12 4-12 5-12 4-11 5-12 5-11 5-12 6-11 5-11 6-10 6-11 7-11 7-10 7-10 7-10 7-10 7-9 8-9 7-9 8-8 8-8 8-8 9-8 8-7 9-7 9-6 9-7 9-6z"/>
    <path class="fil99" d="m7159 3840l189-358 112 165-161 398-140-205z"/>
    <path class="fil6" d="m7159 3840l189-358 112 165-161 398-140-205z"/>
    <path class="fil100" d="m6504 2766l319-144 12-6 13-5 13-5 13-4 13-5-303 138-16 5-17 6-16 6-16 7-15 7z"/>
    <path class="fil101" d="m6584 2735l303-138 14-4 14-3 14-3 14-3 14-3-286 134-18 3-17 4-18 4-17 4-17 5z"/>
    <path class="fil102" d="m6671 2715l286-134 14-2 15-2 15-2 15-1 13-1-268 132-16 1-19 2-18 1-19 3-18 3z"/>
    <path class="fil103" d="m6761 2705l268-132h13l12-1h49l-249 131h-61l-16 1-16 1z"/>
    <path class="fil104" d="m6854 2703l249-131h12l12 1 11 1h12l11 2 11 1-232 132-14-1-14-2-14-1-15-1h-14l-15-1z"/>
    <path class="fil105" d="m6940 2709l232-132 11 1 11 2 10 2 11 2 10 2 10 2 10 3-213 136-13-4-13-2-13-3-13-3-13-2-13-2-14-2z"/>
    <path class="fil106" d="m7032 2727l213-136 10 2 10 3 10 3 9 3 9 4 9 3 9 4-197 141-11-4-12-5-11-4-12-4-12-4-12-3-12-3z"/>
    <path class="fil107" d="m7114 2754l197-141 9 4 9 4 8 4 9 4 8 5-187 147-10-6-10-5-11-6-11-5-11-5z"/>
    <path class="fil6" d="m6504 2766l319-144 12-6 13-5 13-5 13-4 13-5 14-4 14-3 14-3 14-3 14-3 14-2 15-2 15-2 15-1 13-1h13l12-1h61l12 1 11 1h12l11 2 11 1 11 1 11 2 10 2 11 2 10 2 10 2 10 3 10 2 10 3 10 3 9 3 9 4 9 3 9 4 9 4 9 4 8 4 9 4 8 5-187 147-10-6-10-5-11-6-11-5-11-5-11-4-12-5-11-4-12-4-12-4-12-3-12-3-13-4-13-2-13-3-13-3-13-2-13-2-14-2-14-1-14-2-14-1-15-1h-14l-15-1h-61l-16 1-16 1-16 1-19 2-18 1-19 3-18 3-18 3-17 4-18 4-17 4-17 5-16 5-17 6-16 6-16 7-15 7z"/>
    <path class="fil108" d="m7422 2683l136-127 214-16-84 124-266 19z"/>
    <path class="fil6" d="m7422 2683l136-127 214-16-84 124-266 19z"/>
    <path class="fil109" d="m7688 2664l84-124 87 1197-62 420-109-1493z"/>
    <path class="fil6" d="m7688 2664l84-124 87 1197-62 420-109-1493z"/>
    <path class="fil110" d="m7959 4145l30-418 392-1247 67 109-489 1556z"/>
    <path class="fil6" d="m7959 4145l30-418 392-1247 67 109-489 1556z"/>
    <path class="fil111" d="m8448 2589l-67-109 94-6 90 106-117 9z"/>
    <path class="fil6" d="m8448 2589l-67-109 94-6 90 106-117 9z"/>
    <path class="fil112" d="m8400 3605l-59-311 290-21 130 305-361 27z"/>
    <path class="fil6" d="m8400 3605l-59-311 290-21 130 305-361 27z"/>
    <path class="fil113" d="m8761 3578l-130-305-177-430 86 198 221 537z"/>
    <path class="fil6" d="m8761 3578l-130-305-177-430 86 198 221 537z"/>
    <path class="fil114" d="m9681 3780l-312-344 539-39 445 334-672 49z"/>
    <path class="fil6" d="m9681 3780l-312-344 539-39 445 334-672 49z"/>
    <path class="fil115" d="m9324 2547l-241-100 212-15 293 96-264 19z"/>
    <path class="fil6" d="m9324 2547l-241-100 212-15 293 96-264 19z"/>
    <path class="fil116" d="m9433 4035l-263-395-87-1193 241 100 109 1488z"/>
    <path class="fil6" d="m9433 4035l-263-395-87-1193 241 100 109 1488z"/>
    <path class="fil117" d="m4771 6026l667-796-197 685-717 968 247-857z"/>
    <path class="fil6" d="m4771 6026l667-796-197 685-717 968 247-857z"/>
    <path class="fil118" d="m4063 6081l810-808-85 660-831 974 106-826z"/>
    <path class="fil6" d="m4063 6081l810-808-85 660-831 974 106-826z"/>
    <path class="fil119" d="m3896 5394l843-671 114-9-814 669-143 11z"/>
    <path class="fil6" d="m3896 5394l843-671 114-9-814 669-143 11z"/>
    <path class="fil120" d="m4039 5383l814-669 321 794-734 866-401-991z"/>
    <path class="fil6" d="m4039 5383l814-669 321 794-734 866-401-991z"/>
    <path class="fil121" d="m4689 5333l683-658 114-8-655 655-142 11z"/>
    <path class="fil6" d="m4689 5333l683-658 114-8-655 655-142 11z"/>
    <path class="fil122" d="m4831 5322l655-655 334 1186-571 952-418-1483z"/>
    <path class="fil6" d="m4831 5322l655-655 334 1186-571 952-418-1483z"/>
    <path class="fil123" d="m5798 5487l461-687 20 281-456 757-25-351z"/>
    <path class="fil6" d="m5798 5487l461-687 20 281-456 757-25-351z"/>
    <path class="fil124" d="m5839 6066l453-803 26 360-446 893-33-450z"/>
    <path class="fil6" d="m5839 6066l453-803 26 360-446 893-33-450z"/>
    <path class="fil125" d="m5872 6516l446-893 550-43-308 882-688 54z"/>
    <path class="fil6" d="m5872 6516l446-893 550-43-308 882-688 54z"/>
    <path class="fil126" d="m5823 5838l456-757 393-30-358 749-491 38z"/>
    <path class="fil6" d="m5823 5838l456-757 393-30-358 749-491 38z"/>
    <path class="fil127" d="m6314 5800l358-749 13 182-354 794-17-227z"/>
    <path class="fil6" d="m6314 5800l358-749 13 182-354 794-17-227z"/>
    <path class="fil128" d="m6560 6462l308-882 14 191-305 928-17-237z"/>
    <path class="fil6" d="m6560 6462l308-882 14 191-305 928-17-237z"/>
    <path class="fil129" d="m5512 5270l518-644 765-58-326 629-957 73z"/>
    <path class="fil6" d="m5512 5270l518-644 765-58-326 629-957 73z"/>
    <path class="fil130" d="m6469 5197l326-629 14 190-323 676-17-237z"/>
    <path class="fil6" d="m6469 5197l326-629 14 190-323 676-17-237z"/>
    <path class="fil131" d="m7203 5376l180-664 59 819-165 868-74-1023z"/>
    <path class="fil6" d="m7203 5376l180-664 59 819-165 868-74-1023z"/>
    <path class="fil132" d="m7277 6399l165-868h55l7-1h14l-147 867h-9l-8 1h-18l-9 1h-50z"/>
    <path class="fil133" d="m7371 6397l147-867 7-1h15l7-1 8-1h10l10-2 9-1-130 866-12 1-12 2-13 1-9 1h-9l-9 1-10 1h-9z"/>
    <path class="fil134" d="m7454 6390l130-866 10-1 9-2 10-2 9-2 9-3 9-2 8-3 9-3-112 861-11 3-11 4-11 3-11 3-11 3-12 3-12 2-12 2z"/>
    <path class="fil135" d="m7545 6367l112-861 8-4 8-3 8-4 8-4 8-4 8-4 7-5 7-5-96 853-9 6-9 6-10 5-10 5-9 5-10 5-11 4-10 5z"/>
    <path class="fil136" d="m7623 6326l96-853 7-5 7-5 7-5 7-6 6-6 7-6 6-6 6-7-83 841-8 8-8 8-8 8-8 7-8 7-9 7-8 7-9 6z"/>
    <path class="fil137" d="m7689 6268l83-841 6-7 5-7 6-7 5-7 6-8 5-8 5-8 4-8-72 826-6 10-6 10-7 10-6 9-7 10-7 9-7 9-7 8z"/>
    <path class="fil138" d="m7742 6193l72-826 5-8 4-9 4-9 4-8 4-9 4-10 3-9-66 810-4 12-5 12-4 11-5 11-5 11-6 10-5 11z"/>
    <path class="fil139" d="m7776 6115l66-810 3-10 3-9 3-10 2-10 3-10 2-11 2-10-61 793-3 13-3 13-3 13-3 12-3 12-4 13-4 11z"/>
    <path class="fil140" d="m7799 6028l61-793 2-11 2-11 1-11 1-11 1-11-59 779-2 14-1 14-2 14-2 13-2 14z"/>
    <path class="fil6" d="m7277 6399l165-868h55l7-1h14l7-1h15l7-1 8-1h10l10-2 9-1 10-1 9-2 10-2 9-2 9-3 9-2 8-3 9-3 8-4 8-3 8-4 8-4 8-4 8-4 7-5 7-5 7-5 7-5 7-5 7-6 6-6 7-6 6-6 6-7 6-7 5-7 6-7 5-7 6-8 5-8 5-8 4-8 5-8 4-9 4-9 4-8 4-9 4-10 3-9 3-10 3-9 3-10 2-10 3-10 2-11 2-10 2-11 2-11 1-11 1-11 1-11-59 779-2 14-1 14-2 14-2 13-2 14-3 13-3 13-3 13-3 12-3 12-4 13-4 11-4 12-5 12-4 11-5 11-5 11-6 10-5 11-6 10-6 10-7 10-6 9-7 10-7 9-7 9-7 8-8 8-8 8-8 8-8 7-8 7-9 7-8 7-9 6-9 6-9 6-10 5-10 5-9 5-10 5-11 4-10 5-11 3-11 4-11 3-11 3-11 3-12 3-12 2-12 2-12 1-12 2-13 1-9 1h-9l-9 1-10 1h-18l-8 1h-18l-9 1h-50z"/>
    <path class="fil141" d="m6919 5163l236-621 16-2 16-1 15-2 14-2 15-1-218 619-18 2-19 2-18 2-20 2-19 2z"/>
    <path class="fil142" d="m7013 5153l218-619 13-2 14-1 13-2 13-1 13-1-202 617-16 2-16 2-16 1-17 2-17 2z"/>
    <path class="fil143" d="m7095 5144l202-617 12-2 11-1 12-1 11-1 10-1 10-1-184 615-13 2-13 1-14 1-14 2-15 2-15 1z"/>
    <path class="fil144" d="m7179 5135l184-615 10-1 10-1 9-1 9-1 8-1 8-1 8-1h7l7-1-166 614-9 1h-9l-9 1-10 1-11 1-11 2-11 1-12 1-12 1z"/>
    <path class="fil145" d="m7273 5126l166-614h6l6-1 6-1h11l4-1h5l16-1 16-1-148 612-21 1-20 2h-5l-6 1h-6l-7 1h-7l-8 1-8 1z"/>
    <path class="fil146" d="m7361 5119l148-612h16l16-1 16 1h15l-133 612h-78z"/>
    <path class="fil147" d="m7439 5119l133-612 15 1 15 1 15 2 15 1 14 2-114 614-18-2-19-3-18-1-19-2-19-1z"/>
    <path class="fil148" d="m7532 5128l114-614 14 3 14 2 14 3 14 4 13 3-97 618-17-5-17-4-17-3-18-4-17-3z"/>
    <path class="fil149" d="m7618 5147l97-618 14 4 13 5 13 4 12 5 13 5-81 624-16-7-16-6-16-6-16-5-17-5z"/>
    <path class="fil150" d="m7699 5176l81-624 12 6 12 6 12 6 12 7 12 6-67 631-14-8-15-8-15-8-15-7-15-7z"/>
    <path class="fil151" d="m7773 5214l67-631 11 8 11 7 11 8 11 8 11 8-53 641-13-11-14-10-14-10-14-9-14-9z"/>
    <path class="fil152" d="m7842 5263l53-641 10 9 10 9 10 9 10 9 9 10-40 652-12-12-12-12-12-11-13-12-13-10z"/>
    <path class="fil153" d="m7904 5320l40-652 9 10 9 10 8 10 8 11 8 11-30 664-10-13-10-14-10-12-11-13-11-12z"/>
    <path class="fil154" d="m7956 5384l30-664 8 10 7 12 7 11 7 12 6 11-21 679-8-15-8-14-9-15-9-13-10-14z"/>
    <path class="fil155" d="m8e3 5455l21-679 7 12 5 13 6 12 5 13 5 13-14 694-6-16-7-16-7-16-7-15-8-15z"/>
    <path class="fil156" d="m8035 5533l14-694 5 13 5 13 4 14 4 14 3 14-9 710-4-17-5-17-5-17-6-17-6-16z"/>
    <path class="fil157" d="m8061 5617l9-710 4 14 3 14 2 15 3 15 2 15-6 729-3-19-3-19-3-18-4-18-4-18z"/>
    <path class="fil158" d="m8078 5709l6-729 2 15 1 16 2 15-5 741-2-20-2-19-2-19z"/>
    <path class="fil159" d="m8084 5767l5-741 2 40-4 751-3-50z"/>
    <path class="fil160" d="m8087 5817l4-751 1 39-4 760-1-48z"/>
    <path class="fil6" d="m6919 5163l236-621 16-2 16-1 15-2 14-2 15-1 13-2 14-1 13-2 13-1 13-1 12-2 11-1 12-1 11-1 10-1 10-1 10-1 10-1 9-1 9-1 8-1 8-1 8-1h7l7-1h6l6-1 6-1h11l4-1h5l16-1 16-1h16l16-1 16 1h15l15 1 15 1 15 2 15 1 14 2 14 3 14 2 14 3 14 4 13 3 14 4 13 5 13 4 12 5 13 5 12 6 12 6 12 6 12 7 12 6 11 8 11 7 11 8 11 8 11 8 10 9 10 9 10 9 10 9 9 10 9 10 9 10 8 10 8 11 8 11 8 10 7 12 7 11 7 12 6 11 7 12 5 13 6 12 5 13 5 13 5 13 5 13 4 14 4 14 3 14 4 14 3 14 2 15 3 15 2 15 2 15 1 16 2 15 2 40 1 39-4 760-1-48-3-50-2-20-2-19-2-19-3-19-3-19-3-18-4-18-4-18-4-17-5-17-5-17-6-17-6-16-6-16-7-16-7-16-7-15-8-15-8-15-8-14-9-15-9-13-10-14-10-13-10-14-10-12-11-13-11-12-12-12-12-12-12-11-13-12-13-10-13-11-14-10-14-10-14-9-14-9-14-8-15-8-15-8-15-7-15-7-16-7-16-6-16-6-16-5-17-5-17-5-17-4-17-3-18-4-17-3-18-2-19-3-18-1-19-2-19-1h-78l-21 1-20 2h-5l-6 1h-6l-7 1h-7l-8 1-8 1-9 1h-9l-9 1-10 1-11 1-11 2-11 1-12 1-12 1-13 2-13 1-14 1-14 2-15 2-15 1-16 2-16 2-16 1-17 2-17 2-18 2-19 2-18 2-20 2-19 2z"/>
    <path class="fil161" d="m8587 6540l-95-894-88-1198 74 596 109 1496z"/>
    <path class="fil6" d="m8587 6540l-95-894-88-1198 74 596 109 1496z"/>
    <path class="fil162" d="m8478 5044l-74-596 214-16 126 591-266 21z"/>
    <path class="fil6" d="m8478 5044l-74-596 214-16 126 591-266 21z"/>
    <path class="fil163" d="m10240 6408l-423-865-106-236 397 808 132 293z"/>
    <path class="fil6" d="m10240 6408l-423-865-106-236 397 808 132 293z"/>
    <path class="fil164" d="m9655 5946l-307-774 289-22 379 768-361 28z"/>
    <path class="fil6" d="m9655 5946l-307-774 289-22 379 768-361 28z"/>
    <path class="fil165" d="m9703 4929l-316-572 93-7 340 570-117 9z"/>
    <path class="fil6" d="m9703 4929l-316-572 93-7 340 570-117 9z"/>
    <path class="fil166" d="m10016 5918l-379-768-177-431 335 663 221 536z"/>
    <path class="fil6" d="m10016 5918l-379-768-177-431 335 663 221 536z"/>
    <path class="fil167" d="m9217 6490l-220-883 390-1250 316 572-486 1561z"/>
    <path class="fil6" d="m9217 6490l-220-883 390-1250 316 572-486 1561z"/>
   <path class="fil168" d="m3578 4387l84-248 10 6 11 6 10 6 11 5 10 5 11 5 10 5 10 5 11 4 10 4 10 4 10 4 10 4 11 3 10 3 10 3 10 2 10 3 10 2 10 2 10 2 10 1 10 2 10 1 10 1 10 1h49l9-1 29-3 27-4 25-5 23-6 21-7 19-9 17-9 16-11 13-12 11-13 9-14 8-16 5-16 3-18 2-19-1-20v-9l-2-10-2-9-2-9-2-10-3-9-4-9-4-9-4-9-5-8-5-9-6-9-6-8-7-9-7-8-7-8-8-8-9-9-10-8-11-8-12-9-13-9-14-8-15-9-15-9-17-8-17-9-19-9-19-9-21-9-21-9-22-10-23-9-21-9-20-9-20-8-19-9-17-8-17-8-16-8-15-8-14-7-13-8-13-7-11-7-10-7-10-6-8-7-8-6-8-7-8-7-7-7-8-7-7-8-6-8-7-7-6-8-6-8-6-9-6-8-6-9-5-9-5-9-5-9-4-10-5-9-4-10-4-10-4-10-3-10-3-10-3-11-3-10-2-11-3-11-2-11-1-11-2-11-1-12-1-11-1-22v-21l1-21 2-21 4-20 4-19 5-20 7-18 7-19 8-18 10-18 10-17 12-17 12-16 14-16 15-16 7-8 8-7 8-8 8-7 9-6 8-7 9-6 9-6 9-6 9-6 9-6 9-5 10-5 10-5 10-5 10-4 10-4 10-4 11-4 10-4 11-3 11-3 11-3 12-3 11-2 12-3 12-2 12-2 12-1 12-2 13-1 12-1 17-1 16-1 16-1h75l14 1 14 1 14 1 14 1 13 2 13 1 13 2 12 2 12 2 12 3 12 3 11 3 11 3 11 3 11 4 10 3 10 4 10 5 10 4 9 5 9 4 9 5 9 6 8 5-66 236-19-11-18-10-19-9-19-9-19-8-19-6-19-7-20-5-19-5-19-3-19-3-20-2-19-2h-40l-19 1-12 1-11 1-11 2-10 2-11 2-9 3-10 3-9 4-8 4-9 4-8 5-7 5-8 5-7 6-6 6-6 6-6 7-6 6-5 8-4 7-4 7-4 8-3 8-3 8-3 8-2 8-1 9-1 9-1 9v28l2 17 5 16 7 15 9 16 11 16 14 16 16 15 18 16 21 15 22 16 25 15 28 15 29 15 32 15 34 15 37 15 19 8 19 8 18 7 17 8 17 8 16 7 16 8 14 7 14 8 14 7 13 8 12 7 11 7 11 8 10 7 9 7 9 7 8 8 9 7 8 8 8 8 8 8 7 8 7 9 7 8 7 9 6 9 7 9 6 10 5 9 6 10 5 10 5 10 5 10 4 11 5 10 4 11 3 11 4 11 3 12 3 11 2 12 3 11 2 12 2 12 1 13 1 12 2 13 1 22-1 22-1 22-2 22-4 21-5 20-6 20-7 20-9 19-9 19-11 18-12 18-13 18-14 17-16 17-16 16-9 8-9 8-9 7-9 8-10 7-10 7-10 6-10 7-10 6-11 6-11 6-11 5-11 6-11 5-12 5-12 4-12 5-12 4-13 4-12 4-13 4-13 3-14 3-13 3-14 3-14 3-14 2-15 2-14 2-15 2-15 1-15 1-14 1-13 1h-13l-13 1h-13l-13-1h-13l-13-1h-13l-13-2-12-1-13-1-12-2-13-2-12-2-13-3-12-2-12-3-12-3-12-4-12-3-12-4-12-4-12-4-11-4-12-5-12-5-11-5-12-5-11-5-11-6-12-6zm1039-762l-1-20-1-20v-20l-1-19 1-19v-20l1-19 1-18 2-19 2-18 2-19 3-18 3-18 4-18 4-17 4-18 4-17 5-17 5-17 6-17 6-17 6-16 7-16 7-16 7-16 8-16 8-16 9-15 9-15 9-16 10-14 10-15 10-15 10-14 11-13 11-14 11-12 12-13 12-12 12-11 12-11 13-11 13-10 13-10 14-10 13-9 14-8 14-9 15-7 15-8 15-7 15-6 16-6 15-6 16-5 17-5 16-5 17-4 17-3 18-3 17-3 18-3 19-1 18-2 20-1 20-1 20-1h20l19 1 19 1 18 1 19 2 18 2 18 2 17 3 18 3 17 4 16 4 17 5 16 4 16 6 15 6 16 6 15 6 15 7 14 8 15 8 14 8 13 9 14 9 13 9 13 10 12 10 13 11 12 11 12 12 11 12 11 12 11 13 11 13 10 13 10 14 10 13 9 15 9 14 9 15 8 16 8 15 8 16 7 17 7 16 7 18 7 17 6 18 6 18 5 18 6 19 5 19 4 19 4 20 4 20 4 20 3 21 3 21 3 22 3 22 2 22 1 22 2 23 1 22 1 22v43l-1 21v21l-1 21-2 20-2 20-2 20-3 20-3 19-3 19-4 19-4 18-5 19-5 18-5 17-6 18-6 17-6 17-7 17-7 16-7 16-8 16-9 16-8 15-9 15-10 15-9 15-11 14-10 14-11 13-11 14-11 12-12 13-12 12-13 11-13 11-13 11-13 11-14 10-14 9-14 10-15 8-15 9-16 8-15 8-16 7-17 7-16 6-17 6-18 6-17 5-18 5-19 5-18 4-19 3-20 4-19 3-20 2-20 2-21 2-19 1-19 1h-54l-18-1-18-2-17-1-17-3-17-2-16-3-16-4-16-4-16-4-16-5-15-6-15-5-15-7-14-6-14-7-15-8-13-8-14-8-13-9-13-9-13-9-12-10-13-11-12-11-12-11-11-12-11-12-11-13-11-13-10-13-11-14-9-14-10-14-9-15-9-15-9-15-8-16-8-15-8-17-7-16-7-17-7-17-7-18-6-18-6-18-5-18-6-19-5-20-5-19-4-20-4-20-4-21-4-20-3-22-3-21-2-22-3-22-2-22-2-23zm281-21l1 17 1 16 2 16 2 15 2 16 2 15 2 14 2 15 3 14 2 15 3 13 3 14 3 13 4 14 3 13 4 12 4 13 4 12 4 12 4 11 5 12 4 11 5 11 5 11 5 10 5 10 6 10 5 10 6 9 6 10 6 9 6 8 13 17 13 15 14 15 14 13 16 12 15 11 16 9 17 9 17 7 18 6 19 5 19 4 19 2 20 1 21 1 21-1 25-3 24-3 23-5 22-5 22-7 20-7 20-9 19-10 19-11 17-12 16-12 16-14 15-15 14-16 13-17 13-18 5-10 6-10 6-9 5-11 5-10 4-11 5-10 4-11 4-12 4-11 4-12 3-12 3-12 3-13 3-13 3-12 2-14 2-13 2-14 1-14 2-14 1-14 1-15 1-14v-78l-1-16-1-17-1-16-3-33-3-31-4-30-5-30-5-28-6-27-7-25-8-25-8-24-9-23-10-21-10-21-11-19-12-18-12-17-13-16-14-16-15-13-15-13-16-12-16-11-17-9-18-9-19-7-19-7-20-5-21-4-21-3-23-2-22-1h-24l-24 1-22 2-22 3-20 5-20 5-19 6-19 8-18 9-17 9-16 11-15 12-15 12-14 14-14 15-12 16-12 17-11 19-6 9-5 10-5 10-4 10-5 10-4 10-4 11-4 10-4 11-3 11-3 12-3 11-3 12-3 11-2 12-3 13-2 12-1 12-2 13-2 13-1 13-1 13-1 14v13l-1 14v57l1 14 1 15 1 15zm2269-823l-94 227-12-10-14-9-14-8-14-8-16-6-16-6-18-6-18-4-18-4-20-3-20-2-22-2-22-1h-22l-24 1-24 1-12 1-12 1-11 2-11 2-11 2-11 3-11 2-11 3-10 4-11 3-10 4-10 5-10 4-9 5-10 5-9 6-9 5-9 6-9 7-9 6-9 7-8 7-9 8-8 8-8 8-8 8-7 9-8 9-7 9-7 10-7 10-7 10-7 10-7 11-6 11-6 10-5 11-6 11-5 12-5 11-5 12-4 11-5 12-4 12-3 12-4 13-3 12-3 13-3 12-2 13-3 13-2 13-1 14-2 13-1 14-1 14-1 13v14l-1 15v28l1 15 1 15 1 15 1 15 1 14 2 15 1 14 2 14 3 14 2 14 3 13 3 13 3 13 3 13 3 13 4 12 4 12 4 12 4 12 4 11 5 12 5 11 5 11 5 11 6 10 5 10 6 10 6 10 7 10 6 9 7 10 7 9 7 8 7 9 8 8 15 16 16 15 17 14 17 13 17 11 18 10 19 9 19 8 19 7 21 6 20 4 21 4 22 2 22 1h22l23-1 14-1 13-1 12-2 13-2 13-2 12-3 12-3 12-3 11-3 12-4 11-4 11-4 11-5 10-4 10-6 11-5 10-6 9-5 10-7 9-6 9-7 9-7 9-7 9-8 8-8 8-8 8-9 8-8 7-9 8-10 7-9 7-10 140 205-10 11-10 12-10 10-10 11-11 10-11 10-12 10-12 9-12 9-12 8-13 9-13 8-14 7-14 8-14 7-14 6-15 7-15 6-15 5-16 6-16 5-17 5-16 4-17 4-18 4-17 4-18 3-19 3-18 3-19 2-20 2-19 1-20 2-19 1h-38l-19-1h-18l-19-2-18-1-17-3-18-2-17-3-17-3-17-4-16-4-16-5-16-5-16-6-15-6-16-6-14-7-15-7-15-8-14-8-14-8-14-9-13-10-13-9-13-10-13-11-13-11-12-12-12-11-12-13-11-12-11-13-11-13-10-14-11-14-9-14-10-14-9-15-9-15-8-16-9-16-8-16-7-16-7-17-7-17-7-17-6-18-6-18-6-18-5-19-5-19-5-19-4-20-4-20-4-20-3-21-3-20-3-22-2-21-2-22-2-22-1-21-1-20-1-21v-40l1-19 1-20 2-19 2-19 2-19 2-19 4-19 3-18 4-19 4-18 5-18 5-17 5-18 6-17 6-17 7-17 7-17 7-17 8-16 8-16 9-16 9-16 9-16 10-15 10-16 11-15 11-15 11-14 11-14 12-14 12-13 12-13 13-13 13-12 13-12 13-11 13-11 14-10 14-10 14-10 15-9 14-8 15-9 15-8 16-7 15-7 16-7 16-6 17-6 16-5 17-5 17-4 18-4 17-4 18-3 18-3 19-3 18-1 19-2 16-1 16-1 16-1h61l15 1h14l15 1 14 1 14 2 14 1 14 2 13 2 13 2 13 3 13 3 13 2 13 4 12 3 12 3 12 4 12 4 11 4 12 5 11 4 11 5 11 5 11 6 10 5 10 6zm363 1396l-108-1494 266-19 109 1493-267 20zm1456-108l-132-294-516 38-83 310-296 22 489-1556 117-9 713 1467-292 22zm-446-1028l-140 564 361-27-221-537zm893 994l-109-1488 264-19 93 1252 672-49 17 235-937 69zm-4184 2770l-262 20-216-799-247 857-96 8-365-810-106 826-263 21 202-1534 143-11 401 991 249-1041 142-11 418 1483zm549-1318l25 351 491-38 17 227-492 39 33 450 688-54 17 237-958 76-107-1505 957-73 17 237-688 53zm1564 1150l-335 26-108-1500 19-2 20-2 18-2 19-2 18-2 17-2 17-2 16-1 16-2 16-2 15-1 15-2 14-2 14-1 13-1 13-2 12-1 12-1 11-1 11-2 11-1 10-1 9-1h9l9-1 8-1 8-1h7l7-1h6l6-1h5l20-2 21-1h78l19 1 19 2 18 1 19 3 18 2 17 3 18 4 17 3 17 4 17 5 17 5 16 5 16 6 16 6 16 7 15 7 15 7 15 8 15 8 14 8 14 9 14 9 14 10 14 10 13 11 13 10 13 12 12 11 12 12 12 12 11 12 11 13 10 12 10 14 10 13 10 14 9 13 9 15 8 14 8 15 8 15 7 15 7 16 7 16 6 16 6 16 6 17 5 17 5 17 4 17 4 18 4 18 3 18 3 19 3 19 2 19 2 19 2 20 3 50 1 48v47l-2 45-4 44-5 43-7 41-9 39-10 38-12 37-14 35-15 34-17 32-18 31-20 29-22 28-23 27-25 25-27 23-28 22-30 21-32 19-33 18-35 16-37 15-38 13-40 12-41 11-43 9-45 7-46 6-48 5zm-159-1261l74 1023h50l9-1h18l8-1h18l10-1 9-1h9l9-1 13-1 12-2 12-1 12-2 12-2 12-3 11-3 11-3 11-3 11-4 11-3 10-5 11-4 10-5 9-5 10-5 10-5 9-6 9-6 9-6 8-7 9-7 8-7 8-7 8-8 8-8 8-8 7-8 7-9 7-9 7-10 6-9 7-10 6-10 6-10 5-11 6-10 5-11 5-11 4-11 5-12 4-12 4-11 4-13 3-12 3-12 3-13 3-13 3-13 2-14 2-13 2-14 1-14 2-14 1-15 1-14v-15l1-15v-31l-1-16v-16l-1-16-1-16-3-30-3-28-4-28-5-26-6-26-7-24-7-24-8-22-9-21-10-21-11-19-11-19-13-17-13-17-14-15-14-14-16-14-16-12-17-12-18-10-19-10-19-8-21-7-21-7-22-5-23-4-23-4-25-2-25-2h-26l-27 1-27 1-6 1h-6l-6 1-6 1h-7l-6 1-8 1-7 1-8 1-8 1-8 2-9 1-9 1-9 2-9 1-10 2zm1384 1164l-109-1496 266-21 110 1496-267 21zm1653-132l-132-293-514 40-82 311-295 24 486-1561 117-9 712 1465-292 23zm-445-1026l-140 564 361-28-221-536z"/>
     <path class="fil169" d="m12119 905l5-40c-231 180-623 628-861 850-199 186-399 379-625 532 274-431 932-1070 1350-1364 190-133 226-60 131 22zm8-63v-3 3z"/>
    <path class="fil6" d="m12119 905c269-450-1399 1255-1481 1342"/>
     <path class="fil169" d="m10777 1738c-68 51-174 552-227 800 182-64 357-133 551-198-80 55-508 375-656 378-252 6 306-1182 332-980z"/>
    <path class="fil6" d="m10777 1738c-100-54-295 764-326 906 61 5 543-255 650-304"/>
     <path class="fil169" d="m1406 5972c120-621 1488-1104 1666-833-486-55-1353 457-1666 833z"/>
    <path class="fil6" d="m1406 5972c157-476 1431-1028 1666-833"/>
     <path class="fil169" d="m2818 4908c37 0 886-14 471 247-159 100-206 139-356 262 106-259 93-234 249-367-125-51-364-142-364-142zm425 90l3-3-3 3zm12 85l1 1-1-1z"/>
    <path class="fil6" d="m2818 4908c858 186 398 27 115 509"/>
     <path class="fil169" d="m6313 1806c25-547 156-361-373-815-587-504 594-1645 759-494l4 59c239-230 602-462 751-12 159 479-214 821-675 912-330 65-378 236-514 537 16-72 32-134 48-187zm47-132c112-259 254-224 580-344 653-241 478-1312-101-708-281 292-247 300-294-106-104-891-940 28-545 400 414 390 464 365 360 758z"/>
    <path class="fil6" d="m6311 1854c45-462 250-421-341-901-534-433 665-1631 665-210 820-1103 1191 546 139 671-312 38-436 311-509 579"/>
     <path class="fil169" d="m3118 2594s-40 2-78 4l-30 15c74 55 177 231 201-50 0-2 0-1 1-3-6-23-60-9-121 16l27 18zm-197 64c-5 3-9 5-11 6l6-17c-34-84-22-153 72-123 212-231 513 17 331 263-141 192-333 15-398-129z"/>
    <path class="fil6" d="m3118 2594c-502-173 208 516 162-23-13-161-271-43-370 93"/>
     <path class="fil169" d="m2586 2108c-67 43-195 93 22 157 164 49 141-104 124-218-139-40-183-25-250 42 26-1 61 4 104 19zm-173 55c-11 12-22 25-35 38 14-108 34-195 140-257 323-186 494 163 332 383-174 235-430-25-437-164z"/>
    <path class="fil6" d="m2586 2108c-455 29 386 573 209-115-218-62-324-18-417 208"/>
     <path class="fil169" d="m1777 2085c-156 152-154 221 125 274 335 63 105-307-172-274 121-235 562 104 455 335-187 406-984-350-408-335z"/>
    <path class="fil6" d="m1777 2085c-554 185 550 624 319 137-47-100-232-253-366-137"/>
     <path class="fil169" d="m689 2964c-16-15-35-34-57-53-55 38-101 86-128 146-10-43 24-88 51-117 18-19 35-36 51-51-124-104-300-202-351 38-16 79 15 100 51 106l8-6 4 7c49 3 96-15 26 51l2 3c-2 0-4 1-6 1-14 13-33 30-56 50-273 233 210 101-49 414-133 160-148 408-61 443 50-70 100-81 125 25 17 70-25 100-82 95-175 341-43 723 324 404 5-104 252-101 190 6 217 34 314 181 478-115 165-299 212 331 732-214 227-238 104 398 384-178 97-201 325-64 294-532-12-191-200-447-405-345-282 140-517-345-661-106-166 274-438-289-748-203-54 15-110 38-159 69 14 19 28 40 43 62zm-66-90c272-241 418-54 635 79 362 222 151-164 412-58 689 279 336 127 602 107 537-39 629 971 208 1024-101 116-142 564-461 309l-13 13c-318 324-400 311-667 149-2 5-4 9-7 14-158 301-566 268-726 122-677 432-617-242-479-550-125-78-227-290 45-596 176-199-274-128 72-407-152-90 67-582 379-206zm1853 1152c-3 1-5 1-8 1 5 0 6 0 8-1z"/>
    <path class="fil6" d="m689 2964c-400-554-616 183-355 91-455 321 122 223-131 465-216 206-157 609 45 526-41-270-483 1096 351 509 192-136-188 11 252 92 536 100 326-413 578-177 223 208 580-245 585-239 311 349 325-277 457-272 170 8 376-626 2-833-411-226-80 202-797-179-266-141 15 424-644-119-154-127-528 100-528 229"/>
     <path class="fil169" d="m12165 4144c-367-227-266 416-2 432 557 33 471-647-34-547l-27 6c22 23 43 59 63 109zm-86-130c518-327 911 536 266 693-751 184-492-847-266-693z"/>
    <path class="fil6" d="m12165 4144c-329-447-508 808 301 436 327-151 84-829-440-528"/>
     <path class="fil169" d="m12535 4491c511 411 480-784-41-843-1134-127-1168 1554-14 1449 173-16 304-68 471-120-1445 795-2040-1102-831-1430 1317-358 817 1690 415 944z"/>
    <path class="fil6" d="m12535 4491c451 614 753-1204-395-875-1141 327-529 2060 811 1361"/>
     <path class="fil169" d="m4969 7800c394 387 296 434 334 907 14 169 785-152 1088-186 818-92 1080 356 855-794-124-637-1077 65-1679 125l-343-6 334-46c591-125 1643-897 1824-101 303 1340-188 892-980 956-355 29-1177 396-1189 56-19-527 88-413-244-911z"/>
    <path class="fil6" d="m4969 7800c762 811-346 1252 1063 854 1036-293 1578 482 1282-941-167-805-1200 198-2090 133"/>
     <path class="fil169" d="m5062 7800c696-6 701-24 1275 298 132-114 654-610 761-691-33 51-634 929-798 845-712-365-403-270-1238-452zm1248 319l-3 2c1-1 2-1 3-2z"/>
    <path class="fil6" d="m5062 7800c710 69 742 62 1278 387 26 16 758-780 758-780"/>
     <path class="fil169" d="m1036 9165c-292-387-394-1150-18-1468 382-323 733 385 788 676 35 190 67 368 63 561-71-187-104-349-157-540-40-144-302-736-563-595-406 221-232 1038-113 1366z"/>
    <path class="fil6" d="m1036 9165c-540-822 106-2274 694-898 16 37 141 644 139 667"/>
     <path class="fil169" d="m759 7337c-92 233-28 255 313 150 665-205-44-423-348-155l-35 28c48-348 757-355 814-62 92 471-1312 383-744 39z"/>
    <path class="fil6" d="m759 7337c-464 496 1171 126 511-164-167-73-485-23-581 187"/>
     <path class="fil169" d="m1753 8101c-93-577 807-1064 921 14l-18 564-97-544c-195-749-590-641-806-34z"/>
    <path class="fil6" d="m1753 8101c-14-482 903-1197 903 578"/>
     <path class="fil169" d="m2072 7211c-97 30-83 77 60 182 224 164 332-339-38-133l-63 31c13-31 26-57 41-80zm25-35c222-270 580 211 241 383-384 196-525-608-241-383z"/>
    <path class="fil6" d="m2124 7198c-397-136 110 621 273 156 43-120-120-357-366-63"/>
     <path class="fil169" d="m2633 8054c-106-556 789-643 894 187l-15 415-92-392c-156-479-570-777-787-210z"/>
    <path class="fil6" d="m2633 8054c-17-502 879-641 879 602"/>
     <path class="fil169" d="m2910 7360c-1 0-135 5-142 19 3 1 3-1 5-2 89 80 356 325 392 42 16-126-159-174-310-107l-20 9c22 10 47 22 75 39zm-100-49c206-338 670 28 432 316-286 344-770-439-432-316z"/>
    <path class="fil6" d="m2910 7360c-521-162 262 608 324 70 11-97-190-353-439-93"/>
     <path class="fil169" d="m9018 7453c-453-10-501 579-442 899 165 898 955 1251 1771 824 929-486 1022-2123-785-1810-49 9-74 16-116 29l-43-96c115-107 302-269 413-417-218 153-420 471-842 556 15 3 30 8 44 15zm-89-18c530-204 811-647 970-691 205-58-109 298-302 504 1989-361 1916 1728 630 2131-1839 575-1937-1576-1603-1741 45-103 184-200 305-203z"/>
    <path class="fil6" d="m9018 7453c-145-50-355 112-374 204-274 57-270 2234 1562 1655 969-307 1252-1849 154-1996-656-88-930 29-927 27 206-141 998-1094-25-139-85 79-436 257-529 249"/>
</svg>
